<svg version="1.1" id="Layer_1" xmlns="http://www.w3.org/2000/svg" xmlns:xlink="http://www.w3.org/1999/xlink" x="0px" y="0px"
	 width="800px" height="507px" viewBox="0 0 800 507" enable-background="new 0 0 800 507" xml:space="preserve">
<g>
	<path fill-rule="evenodd" clip-rule="evenodd" fill="#202020" d="M172,508c10.5-31.9,20.8-63.9,31.5-95.8
		c3.1-9.1,5.2-18.2,4.6-27.8c-0.2-2.5-0.8-5.4,3-6.4c1.6-0.4,1.1-2.3,1.1-3.5c0.1-28.2,0.1-56.3-0.6-84.5c-0.1-3.3-1.3-4.4-4.1-5
		c-4.4-0.8-8.8-1.8-13.2-2.7c-25.4-4.9-40-21.1-47-45c-2.1-7-3.6-14.2-3-21.7c0.2-2.6-0.5-3.7-3.4-4.2c-21.1-4-42.2-8.2-63.2-12.4
		c-2.2-0.4-4.6-1.4-6.1,1.5c-0.7,1.4-2,0.7-3.1,0.4c-20.4-5.5-40.8-11-61.3-16.4c-2.3-0.6-3.3-1.8-3.6-4.1
		c-0.5-3.5-1.2-6.9-1.7-10.3c0-5.1,0-10.1,0-15.2c3.1-33.6,9-66.6,21.3-98.2C27.3,46,33,36,38.6,26c1.4-2.5,2.9-2.6,5.3-1.8
		C62.3,30,80.6,36,99.1,41.5c3.9,1.2,5.6,3.3,5.7,6.9c0.2,5.2,2,8.9,7.3,10.3c-1.5,1.4-5.1-0.5-5.2,3.2c-0.6,3.3-0.6,6.6-0.5,9.9
		c0.5,19.3-1.8,38.3-6.6,57c-5.6,22.2-13.2,43.6-25.1,63.3c-0.8,1.3-0.3,1.9,0.8,2.3c1.1,0.4,2.3,0.5,3.4,0.8
		c51.8,10.3,103.5,20.6,155.3,30.9c14.4,2.9,28.7,5.8,43.1,8.6c2.6,0.5,5,1.3,7-1.7c9.8-14.7,16.6-30.7,20.5-47.9
		c3.5-14.3,2.6-28.6-0.2-42.9c-0.5-2.7-2.3-4.6-5.2-5.4c-3-0.9-5.9-2.2-8.8-3.4c-16.6-6.7-33.2-13.4-49.8-20
		c-3.4-2.9-7.6-4-11.6-5.6c-11-4.4-22-8.4-32.5-13.9c-0.6-0.3-2.4-0.4-0.7-1.8c0.3,0,0.6,0,0.9,0.3c0.5,0.2,0.9,0.4,1.4,0.7
		c0.6,0.1,1.1,0.3,1.7,0.4c0.4,0.2,0.8,0.4,1.1,0.6c16.2,5.7,31.9,12.4,47.9,18.7c15.8,6.2,31.6,12.4,47.3,18.9
		c3.4,1.4,5.2,1.1,7.2-2.3c3-5.3,6-6.3,11.7-3.9c8.9,3.7,17.6,8,26.4,11.9c1.9,0.9,2.5,2.5,3.2,4.2c2.7,7.1,3.8,14.5,4.1,22
		c0.1,2.7,1.2,3.4,3.4,4.3c24.6,8.9,49.1,18,73.6,27c3.3,1.2,6.6,2.2,9.9,3.4c3.3,1.2,6.4,1.5,9.7-0.1c3-1.4,6-1.7,9.2-0.6
		c1.4,0.5,3,0.5,4.5,0.2c7.2-1.4,11.8,0.5,15.3,6.8c1.2,2.3,2,3.2,4.9,2.4c5.5-1.7,8.4-0.3,11.4,5c1.3,2.2,2.4,2.6,4.8,1.3
		c5.3-2.9,9.5-1.1,11.8,4.6c1.4,3.4,1.5,7.1,3,10.5c1.5,3.1,4.1,4.2,6.8,5.4c0.8,0.4,1.7,0.5,2.2-0.4c2-3.4,4.9-6,5.9-10.2
		c4.3-18,12-34.4,25.4-47.3c10.1-9.7,21.6-17.7,35.4-21.8c7.3-2.2,14.9-2.9,22.2-1.7c15.6,2.4,31.4,4,46.4,9.6
		c3.3,1.2,6.6,2.3,9.7,4c23.5,13.3,41.1,32.4,51.9,57c5.7,12.9,7.6,26.7,4.1,41c-2.8,11.3-5.8,22.6-9.2,33.7
		c-4.2,14-6.7,28.2-7.8,42.6c-1.8,23.3-0.5,46.4,3.8,69.6c5.4,29.5-4,54.4-27.2,73.9c-8.3,6.9-17.5,12.2-27.5,15.9
		c-4.5,1.6-8.1,3.5-9.4,8.4c-1.3,0-2.7,0-4,0c0-0.3-0.1-0.6-0.1-1c2.6-11,6.6-21.6,10.9-32.1c6.4-15.5,9.1-31.6,8.3-48.2
		c-0.5-10.4-5.4-18.2-14.1-23.8c-4.7-4.4-10.8-4.5-16.7-5.6c-7-1.4-13.8-1.4-20.8,0.3c-7.3,1.9-14.6,3.2-22.1,3.8
		c-19.5,1.6-38.6,5.1-57.7,9c-5.2,1-5.2,1.2-4.9,6.6c0.3,5.1-1,9.9-2.2,14.8c-0.1,0.6-0.7,1.6-1,1.6c-1.3-0.1-0.6-1.2-0.7-1.9
		c-0.1-6-1.2-11.9-2-17.9c-0.4-3-1.4-5.8-3-8.4c-0.6-1-1.3-2.3-2.6-1.9c-1.2,0.3-1.5,1.6-1.6,2.8c-0.1,0.7,0,1.3-0.1,2
		c-0.7,6.2-2.1,12.1-4.6,17.8c-0.3,0.8-0.6,2-1.4,1.7c-0.9-0.3-0.2-1.4-0.1-2.1c0.8-14.3,1.3-28.5-4.8-42.2
		c-4.9-10.8-11-20.9-16.2-31.5c-1.3-2.6-2.3-1.5-3.4,0c-6.5,8.4-14.5,15.1-23.1,21.3c-11.9,7.2-24.3,13.2-38.1,15.6
		c-1.9,0.3-2.8,1-1.4,2.9c7,10,12.4,20.9,19.4,30.8c13.3,18.7,27.5,36.8,40.3,55.9c2.1,3.2,5.4,4.8,9,5.9c3.9,1.2,7.9,0.9,11.9,0.5
		c20.3-1.8,40.2-5.7,60-10.3c21.8-5,43.9-9.1,65.5-15.6c-0.1,1.2-1.1,1.3-1.7,1.7c-4.6,3.2-9.8,4.8-15.1,6.4
		c-0.8,0.2-1.8,0.4-1.7,1.4c0,0.3,1.1,0.5,1.6,0.8c2.3,0.9,4.7,1.7,7,2.7c0.6,0.2,1.4,0.4,1.3,1.3c-0.1,0.9-1,0.7-1.6,0.5
		c-4.6-0.9-9.3-0.3-13.8-2c-1.5-0.5-3-0.7-4.4-0.3c-10,3.3-20.3,4.9-30.5,7.5c-9.1,1.7-17.8,5.4-27,6.9c-2.9,0.5-4.7,1.9-6,4.5
		c-2.8,6-5.9,11.9-8.9,17.8c-1,0-2,0-3,0c-0.8-1.4,0-2.5,0.5-3.7c1.8-3.9,3.8-7.7,5.5-11.7c0.6-1.4,2.7-3,1.1-4.2
		c-1.5-1.1-3.4,0.6-4.8,1.6c-1.2,0.9-1.8,2.3-2.4,3.7c-2.2,4.8-4.6,9.5-6.8,14.3c-1,0-2,0-3,0c0.2-0.3,0.2-0.6-0.1-0.9
		c1.4-3.6,2.9-7.1,4.1-10.7c0.5-1.5,2.1-3.5,0.8-4.6c-1.5-1.1-3.8,0-5.6,0.8c-1.1,0.4-1.9,1.4-2.5,2.4c-2.3,3.5-4.6,6.9-5.8,11
		c-0.6,0.7-1.3,1.4-1.9,2.1c-0.7,0-1.3,0-2,0c-0.6-1.1-2.8,0-2.7-1.9c1.9-0.1,3.3-1,3.5-2.9c0.3-2,1.4-3.7,2.2-5.5
		c1.5-3.4,0.2-5.3-3.7-5.6c-1.8-0.1-3.7,0-5.5,0c-3.4-1-4.7,1.9-6.2,3.8c-3.1,3.9-5.8,8.1-8.7,12.1c-1,0-2,0-3,0
		c-0.1-0.8-0.4-1.5,0.1-2.4c2.4-4.4,4.7-8.8,7.1-13.2c0.9-1.7,1-2.9-0.7-4.2c-5.2-4-9.4-9-13.7-13.8c-1.8-2-2.9-2.7-5.6-1.1
		c-9.9,5.7-20.1,4.8-30.3,0.6c-1.7-0.7-2.9-2.1-4.2-3.5c-20.4-23.9-37.8-49.8-52.2-77.8c-8.3-16.1-14.3-33.4-23.2-49.2
		c-1.3-2.3-0.3-3.9,1.2-5.8c6-7.4,12.9-13.9,21.2-18.7c2.8-1.6,3.9-3.2,1.9-6.6c-4.8-8.2-9.1-16.7-13.5-25c-1.3-2.5-2.9-4.8-4.9-6.8
		c-8.9-8.7-14.3-19.1-13.5-32c0.1-2.2-0.1-4.3-0.2-6.5c-0.1-1.4-0.5-2.5-1.9-3.2c-4.6-2.3-7.8-1.5-10.7,2.9c-4.2,6.4-5.2,7-12.2,5.1
		c-3-0.8-4.2,0-5.2,2.6c-3,7.3-8.3,12.7-14.4,17.5c-10.5,8.4-22.5,13.4-35.4,16.6c-6.8,1.7-6.5,1.9-6.8,8.7
		c-1.1,27.3,0.6,54.6-0.2,82c-0.1,2.2-0.2,4.5,3,4.7c1.7,0.1,2.2,1.3,2.2,2.8c0,6.7,0.5,13.4-0.2,20c-0.3,2.8-0.2,5,0.6,7.5
		c10.7,31.5,21.4,63,32,94.6c0.5,1.4,1.1,2.8,0.5,4.4c-1.7,0-3.3,0-5,0c-0.4-1.6-0.7-3.3-1.2-4.8c-9.7-29.5-20-58.9-29.2-88.7
		c-1.4-4.5-4.4-6.9-8.8-7.8c-3.8-0.7-7.5-1.2-11.4-1.1c-10,0.1-13.6,2.7-16.8,12.1c-3.3,10-6.7,19.9-10.1,29.8
		c-6.9,20.2-13.7,40.3-20.6,60.5c-1.7,0-3.3,0-5,0c0.4-1.6,0.7-3.3,1.2-4.8c9.5-28.6,19-57.1,28.6-85.7c1-3,2.1-5.9,4-8.6
		c0.9-1.3,2.6-2.4,1.5-4.3c-1.1-1.9-3.2-1.5-5-1.5c-3.3-0.1-4,2.4-4.8,4.8c-11,33.3-22.8,66.4-32.6,100.1
		C175.3,508,173.7,508,172,508z M411.9,248.1L411.9,248.1c-2.8,2.3-4,5.2-2.9,8.9c-1.8,6.3-3.2,12.7-6.4,18.5
		c-0.3,0.5,0.4,1.6,0.6,2.4c-3.2,0.3-3.8,3.1-5.1,5.2l0,0c-0.2-0.3-0.5-0.6-0.7-0.9c-0.4-0.7-0.9-1.3-1.3-2c-0.3-0.3-0.5-0.7-0.8-1
		c-3.3-4.2-3.3-4.2,0.2-8.3c3-3.6,4.4-8,4.6-12.4c0.3-7.1,2.7-13.2,6.2-19.2c2.5-4.3,6-8,6.8-13.1c-0.1-6.6-3.3-8.7-9.3-6.1
		c-9.7,4.3-13,12.8-14.6,22.3c-0.9,5.5-2,6.5-7.6,6.3c-7-0.3-13.9-0.9-20.7-2.8c-3.2-0.9-6.5-1.1-9.8-1.7c-2.3-0.4-3.5,0.6-3.9,2.7
		c-1.7,10.8,2,22.8,10.4,28.6c3.3,2.3,5.5,5.1,7.5,8.5c6.4,10.7,11.2,22.3,17.1,33.3c1,2.4,1.9,4.9,3.1,7.3c0.8,1.6,1.8,3.3,4.2,2.2
		c8.2-3.8,15.6-8.7,21.5-15.7c1.6-1.8,1.8-3.8,0.5-5.9c-1.5-2.6-2.9-5.2-4.3-7.8c2.9,0.2,3.8-2.2,5-4l0,0c0.3,0.4,0.6,0.7,0.8,1.1
		c1.4,1.4,2.7,3,4.2,4.2c1,0.8,2.6,1,2.4-0.8c-0.6-4,0.4-8.3-2.2-12.1c-4.5-6.5-4.5-13.2-0.2-20c1.1-1.8,3.1-3.9,0.9-6.3
		c1.2-4.1,3.5-7.1,8-7.8c5.1-5.9,8.6-12.6,10-20.3c1.4-7.6,1.1-15.2,0.9-22.9c-0.1-2.6-1.1-3.8-3.4-4.6c-15.2-5.5-30.6-10.1-45.7-16
		c-11.3-4.4-23.1-7.6-34.4-12.1c-4-1.6-4.2-1.3-4.1,3c0.1,3.2-0.3,6.3-0.8,9.4c-1.1,6.1-2.3,12.1-3.5,18.1
		c-3.1,7.3-5.1,15.1-8.7,22.2c-0.9,1.8-0.6,2.7,1.5,3.2c14.6,3.2,29.1,6.4,43.7,9.6c2.3,0.5,4-0.1,4-2.9c0-7.1,3.6-12.6,7.8-17.8
		c3.4-3.4,7.5-5.5,12.1-6.5c4.8-1.1,9.5,1.2,11.4,5.7c0.9,2.1,1.6,4.4,2.3,6.5c0.1,1.8-0.8,3.1-1.8,4.4c-2.6,3.4-4.4,7.3-6.1,11.2
		c-0.8,1.9-1.4,3.7-0.2,5.6C411.3,247.5,411.6,247.8,411.9,248.1z M315.8,186.9c1.4-3.7,0.8-7.6,1.3-11.3c1.7-12.7,0-25.2-2.9-37.5
		c-0.7-2.8-1.6-5.4-3.2-7.8c-0.8-1.3-2-2.1-3.2-0.7c-1,1.2-3.3,3-1.3,4.4c2.7,2,2.8,4.7,3.2,7.3c2.1,13.5,3.1,27,1.1,40.7
		c-0.3,0.8-0.7,1.5-0.8,2.3c-1.9,13.6-6.1,26.5-13.1,38.4c-2.3,3.9-4.3,7.9-7.1,11.4c-1.7,2.2-1,3.1,1.4,3.6c4.5,1,5.2,0.7,7.2-3.6
		c2.4-5.3,4.7-10.6,7.2-15.8C310.7,208.2,313.4,197.6,315.8,186.9z M389,334.1c-9.3,4.1-19,6.9-28.6,10c-1.7,0.6-3.1,1.4-3.4,3.3
		c-0.5,4.1,4.5,8.7,8.7,8.4c10.9-1,20.5-5.3,29.4-11.5c8-5.6,16-11.3,22.8-18.4c1.2-1.2,2.3-2.3,2.2-4.2c-0.2-3.5-0.2-7-0.4-10.5
		c0-0.6,0.2-1.4-0.6-1.7c-1.2-0.5-1.4,0.6-1.7,1.2c-2.1,3.6-5.1,6.5-8.2,9.3C403.2,325.5,395.7,329.2,389,334.1z M223,382
		c-2.8-0.1-5.6-0.1-8.4-0.2c-1.8,0-2.9,0.4-2.7,2.5c0.1,1.1-0.1,2.3-0.1,3.5c0.4,12.4-3.1,11.6,12.2,11.2c8.3,0.6,16.5,0.2,24.8,0.6
		c6,0.3,6-0.2,6-6.4c0-2.3-0.1-4.6-0.1-7c0.1-3-0.9-4.5-4.3-4.4C241.2,382,232.1,382,223,382z M678.2,249.9
		c-7.8-4.5-15.1-4.1-20.1,1.2c-3.3,3.5-1.9,7.3,0.5,9.9c8.2,9.2,17.6,16.7,30.3,18.7c2.7,0.4,4.8-0.2,6.8-2.2
		c3.9-3.9,4.1-8.6,0.2-14.5C691.6,256.5,685.5,252.3,678.2,249.9z M442.1,358.2c-9.4,5-19.1,9-29.7,11.1c-11.8,2.4-8.6,2-4.6,10.6
		c1.3,2.6,3,3.5,6,3.1c14.2-2.2,27.1-7.5,39.3-14.9c7-3.7,12.7-9.1,18-14.8c7.6-8.2,7.8-10.1,2.8-20.1c-0.9-1.7-1.2-2-2.5-0.3
		C463.3,343.2,452.6,350.6,442.1,358.2z M503,365c-1.7,6.4-4,12.9,1,19c0.3,2.2,2.4,3.7,2.7,5.8c0.8,4.9,3,8.4,7.8,10.3
		c1.6,0.6,2.6,2.9,4.6,2.6c5.1-0.9,10.3-0.2,15.4-1c2.1-0.3,4.5-0.6,5.1-3.3c0.6-2.7-1.7-3.7-3.4-4.9c-8.5-5.7-16-12.4-21.9-20.9
		c-2.3-3.3-4.5-6.6-6.9-9.8c-0.7-1-1.2-2.8-2.7-2.6c-1.5,0.3-1.3,2.1-1.7,3.3C503,364,503.1,364.5,503,365z M204,238
		c2.5,5.4,6,10,10.9,13.2c11.2,7.3,23.2,6.4,35.4,3.3c3.9-1,7.4-2.9,9.6-6.5c2.6-2,4-4.8,5.6-7.6c2-3.5,1.4-4.6-2.5-5.4
		c-5.9-1.2-11.7-2.4-17.6-3.6c-13.8-2.8-27.7-5.6-41.5-8.5c-3.2-0.7-4.3,0-3.8,3.4C200.8,230.4,201.5,234.5,204,238z M165.8,230.2
		c4.7,14.2,12.8,26.3,23.5,36.6c8,7.7,16.6,14.7,28.3,15.6c22.3,1.7,44-0.4,64-11.3c6.8-3.7,13.9-7.3,18.5-14.1
		c2.9-2.7,4.2-6.3,5.8-9.8c0.6-1.3,0.8-2.4-1-3.2c-5.6-2.5-8-1.8-11.1,3.2c-1.6,2.5-3.2,5-4.8,7.6c-3.8,3.9-7.2,8.4-12.4,10.7
		c-10.5,4.6-21,8.8-32.6,10.2c-14.2,1.7-27.6-0.7-40-7.2c-7-3.7-13.2-8.8-18-15.4c-5-6.8-7.3-14.8-10.7-22.4
		c-0.5-3.4-0.9-6.9-1.6-10.3c-0.7-3.8-4.2-2.5-6.5-3c-2.4-0.6-2.4,2-2.5,3.4C164.5,224.1,164.4,227.3,165.8,230.2z M180.9,233
		c3.4,13.7,11.3,23.7,24,30.2c18.3,9.3,37.2,10.4,56.6,4.3c8.2-2.6,16.4-5.7,21.6-13.4c2.7-2,4.4-4.8,6-7.7c2-3.7,1.7-4.3-2.3-5.5
		c-0.8-0.2-1.6-0.4-2.4-0.6c-12.1-3-12.1-3-17.5,8.6c-5.5,6.5-12.3,11.1-20.9,12.3c-8,1.1-15.9,0.7-23.7-1.4
		c-5.4-1.4-10-4.2-14.1-8.1c-4.7-4.5-8-10.1-11.3-15.7c-2-7.2-3.3-15.2-13.5-15c-0.3,0-0.6-0.1-1-0.2c-2.7-0.7-3.8,0.4-3.5,3
		C179.4,226.9,179.7,230.1,180.9,233z M319.9,185.9c-3.7,17.5-8.7,34.5-17.6,50.1c-1.3,2.3-0.7,3.3,1.6,3.9c3.2,0.8,6.4,1.8,9.7,2.5
		c7.6,1.6,8.3,1.3,11.9-5.3c7.4-13.6,13.7-27.7,16.4-43.1c0.5-4.5,1-8.9,1.5-13.4c1.3-11.8,0.7-23.5-2.4-35.1
		c-0.9-3.2-2.5-5.3-5.5-6.5c-4.8-1.9-9.5-4-14.2-5.9c-1.2-0.5-2.5-1.8-3.6-0.8c-1.2,1.1-0.4,2.8,0,4.2
		C321.7,152.8,322.5,169.3,319.9,185.9z M238,377.9c2.5,0.1,5,0.4,7.5,0.3c4.5-0.1,5-0.8,5-5.4c0-26.5-0.1-52.9-0.1-79.4
		c0-7,0.1-7.1-6.7-6.6c-7.3,0.5-14.6,0.2-21.9-0.1c-5.6-0.2-5.8-0.1-6.3,5.5c-0.3,3.1-0.3,6.3-0.3,9.5c0.1,6.8-0.7,13.6,0.6,20.4
		c0.4,16.7,0,33.5,0.7,50.2c0.2,3.7,1.7,5.1,5,5.2C227,377.6,232.5,377.8,238,377.9z M416,336.1c-1.1,0-1.8,0.7-2.6,1.4
		c-13.6,12.1-29.2,20.2-47.3,23c-3.1,0.5-2.9,1.8-1.8,4c3.6,7.7,7.2,15.4,10.9,23c6.3,13.1,14.4,25.1,21.8,37.5
		c8.3,13.9,17.6,27.1,28.8,38.9c6.6,7,14.9,8.9,24.2,6.9c2.1-0.5,3.3-1.9,4.1-3.9c1.9-4.9-0.7-8.2-3.5-11.7
		c-8-10.2-16-20.5-22.3-31.8c-2.3-4.1-4.8-8-7.5-11.8c-8.8-12.4-15.5-26-23.2-39c-1.1-1.9-1.1-3.6-0.4-5.7
		C401.2,355.2,407.2,344.8,416,336.1l0.2-0.3L416,336.1z M41.8,97.8c-0.5,0.6-0.8,1.4-0.6,2.2c0,0.6-0.1,1.3-0.1,1.9
		c-2.5,12.9-6.3,25.5-10.1,38.1c-3.8,12.6-7.7,25.2-14.7,36.5c-2.8,4.6-2.9,4.9,2.2,6.3c14.8,4.1,29.6,7.9,44.4,11.9
		c3.3,0.9,5.2,0,6.7-3.1c11.8-23.9,21-48.6,26.3-74.7c2.2-7.9,3.6-15.9,4.6-24c1.8-13.9,2.1-27.9,0.8-41.8c-0.3-3.6-1.9-5.5-5.5-6.6
		c-15.4-4.7-30.8-9.7-46.1-14.6c-5-1.6-5.2-1.4-4.3,3.6c1.9,10.9,3,21.8,1.3,32.8C45.1,76.8,43.5,87.3,41.8,97.8z M434.9,249.9
		c-3.3,5.8-6.9,11.3-11.3,16.4c-3.2,3.6-4,8.3-1.9,12.6c1.9,4,2.5,8,2.9,12.4c1.9,19.2,3.5,38.4,4,57.7c0.2,7,2.1,7.9,8.5,4.7
		c0.6-0.3,1.1-0.7,1.7-1.1c4.9-3.5,9.7-7.1,14.6-10.6c6.3-4.5,10-10,7.7-18.1c-0.2-0.6-0.2-1.3-0.3-2c0.4-5.2,0.3-10.3-0.2-15.5
		c-0.9-8.6-0.9-8.9,7.5-11.3c18.9-5.5,33.6-23.1,35.8-42.6c1.1-9.7,0.4-19.3-0.5-28.9c-0.1-1.7-0.6-3.3-1.4-4.7
		c-1.3-2.1-3.2-2.3-5.2-1.9c-2.3,0.4-2.1,2.2-2.1,3.9c0,2.8,0.1,5.7,0.2,8.5c0.5,11-1.8,21.1-8.1,30.3c-0.6,0.9-1.1,2.6-2.3,1.9
		c-0.9-0.5,0.1-1.8,0.4-2.7c4.3-13.5,4.5-27.2,0.9-40.9c-1.1-4.1-4.2-6.9-6.3-5.9c-3.2,1.5-3.5,4.6-3.2,7.7
		c1.2,11.6-3,22.3-5.3,33.3c-0.1,0.7-0.4,1.5-1.2,1.3c-0.6-0.2-0.4-1.1-0.3-1.8c1-6.9,1.3-13.9,1.4-20.9c0.1-7.7,0.4-15.3-0.7-22.9
		c-0.4-2.7-1.4-5.1-3.6-6.9c-1.6-1.2-3.5-1.3-5.2-0.7c-2.2,0.7-1.5,2.7-1.4,4.3c0.1,1.7,0.3,3.3,0.6,5c2.1,12.5-0.6,24.5-4.2,36.3
		c-0.3,1.1-0.7,2.7-2.2,2c-1.1-0.5-0.2-1.8,0.1-2.7c3.8-10.8,3.2-22,2.4-33.1c-0.2-3.1,0.1-6.4-1-9.4c-1.2-3.6-3.8-4.7-7-2.7
		c-3.4,2.1-6.6,4.4-6,9.4c0.4,3.4-0.5,7-0.2,10.5c0.5,7.5-1.6,14.5-4.3,21.3C437.1,244.7,436,247.3,434.9,249.9z M577.9,183
		c2.2,4.7,5.4,8.7,8.5,12.9c4.7,6.6,11.7,10.9,16.9,16.9c12.4,14.5,26.8,26.8,42.4,37.7c3.1,2.1,4.9,2,7-0.8
		c0.9-1.2,2.1-2.2,3.2-3.2c4.3-3.8,10.1-5.3,14.9-3.8c8.3,2.6,16.7,5.8,23.8,11.4c6.3,4.9,9.1,11.3,8.4,19.2
		c-0.8,8.8-7.5,13.6-16,11.3c-1.6-0.4-3.2-1.1-4.8-1.4c-1.7-0.4-3.5-0.4-4.2,1.6c-1.2,3.4-3.1,2.5-5.4,1.2c-4.6-2.7-5.1-2.6-7.2,2.5
		c-6.7,16.8-11.3,34.1-11.5,52.4c-0.1,7.1-1.2,14.2-1.6,21.4c-0.4,8.5-0.5,16.9,0.2,25.4c0.7,7.6,3.9,14.4,6,21.6
		c3.5,11.6,5.7,23.2,3.5,35.4c-2.6,14.8-7.1,29.1-11.7,43.4c-0.6,1.7-1.7,3.6,0.2,5c1.6,1.3,3.2-0.1,4.6-0.8
		c12.5-6.8,24.3-14.5,33.1-26.1c8.4-11.1,14.3-23,14-37.6c-0.3-14.4-2.9-28.5-4.8-42.6c-2-15.3-2.4-30.7-1.1-45.9
		c2-24.1,7.2-47.7,14.6-70.8c2.4-7.6,5-15.3,3.9-23.5c-0.1-10.3-1.1-20.4-7.3-29c-9-12.6-18-25.2-29.9-35.3
		c-5.8-4.9-12.2-9.5-19.4-12.2c-16.8-6.2-34.1-10-52.1-10.6c-18.5-0.6-33.9,6.7-47.3,18.9c-8.9,8-15.4,17.9-21.7,27.9
		c-2.9,4.6-4.9,9.8-6.8,15c-0.5,1.3-1,3,0.2,3.7c1.7,1,2.7-0.8,3.5-1.9c1.5-2.2,2.9-4.4,3.9-6.9c5.9-15.3,16.4-26,32-31.3
		c1.3-0.5,2.6-1.1,2.8-2.5c0.7-4.5,1.9-2.7,3.4-0.4C576.7,181.9,577.4,182.4,577.9,183z M506,348c1.2,6.2,4.9,11.2,8.2,16.4
		c8.5,13.2,21.1,21.5,34.3,29.2c4.2,2.4,9.2,4.3,13.9,3.3c8.2-1.7,16.6-1.2,24.7-3.4c16.6-4.3,33.7-3.4,50.6-4.3
		c5-0.3,5.2,0.2,5.5-4.7c0.6-10.1,1.4-20.3,1.7-30.4c0.8-25.3,6.1-49.5,15.5-72.9c3.1-7.8,2.7-9-4-14.2
		c-18.8-14.6-38.8-27.5-55.2-45.1c-8.8-9.7-17.9-19.3-25.6-29.9c-2-2.7-4.5-3.5-7.8-2.7c-4.2,1.1-7.8,3-10.6,6.1
		c-3.6,3.9-6.8,8.1-9.7,12.6c-2.4,3.6-4.7,7.3-6.4,11.3c-0.2,0.6-0.5,1.4,0.1,1.8c0.2,0.1,0.8-0.4,1.2-0.5c5.5-2.2,11.3-2.3,17-1.7
		c1,0.1,2,0.1,2.4,1.4c0.5,1.9-2,5.7-4.1,5.7c-5.5,0.2-11-0.4-16.4,0.9c-1.1,0.3-2.4-2-3.3,0.2c-0.7,1.6,0.5,2.5,1.3,3.5
		c9.6,11.2,8.1,31.4-0.7,42.3c-4.9,6-8.4,7.4-15.5,4.3c-3.1-1.3-4.7-0.7-6.5,2c-9,13.4-12.3,28.6-13.4,44.3
		C502.7,331.7,502.5,340.1,506,348z M466.6,312.6c0,2.2,0,4.3,0,6.5c0,0.3,0,0.7,0.1,1c0.2,1.9,0.8,3.2,3.1,2.8
		c1.7-0.3,3.7-2.2,5.1-0.9c1.3,1.2,1.5,3.6,2.3,5.4c1.3,3.1,2.7,6.1,3.9,9.2c3.5,9,9.3,16.9,12.9,25.8c0.3,0.8,0.2,2.4,1.5,2.2
		c1-0.1,1.1-1.5,1.3-2.4c1.5-7,1.9-14.1,1.4-21.3c-1.6-22.4,0-44.3,12.3-64c1.3-2.2,1.9-4.6,2.2-7.1c0.2-1.9-0.1-3.9-2-4.7
		c-2.1-0.8-2.8,1.3-3.7,2.5c-1.4,1.9-2.7,3.8-3.9,5.8c-4.7,7.3-10.6,13.6-17.3,19.2c-2.1,1.7-4.4,2.8-7,3.7
		C465.6,300.7,466.9,298.3,466.6,312.6z M6,159.9c0,4-0.1,8,0,12c0.1,2.2-0.6,5.8,2.2,5.8c3,0,3.4-3.5,3.5-6.2
		c0.1-1.7-0.1-3.3-0.2-5c-0.1-2.5-0.4-5-0.5-7.5c-1.1-21.7,3-42.7,8.7-63.5C24.3,79,29.9,62.8,39.1,48.1c2.7-4.3,2.8-8.3,1.9-12.7
		c-0.2-1.1-0.1-2.5-1.7-2.6c-1.1-0.1-1.8,0.9-2.2,1.7c-1.9,3.7-3.8,7.4-5.5,11.2c-8,17.7-12.9,36.4-17.6,55.1
		C9,120.1,6.2,139.9,6,159.9z M147.2,217.5c0.9,18,8.1,31.9,18.7,44.1c6.7,7.7,15.5,12.4,25.2,15.6c1.1,0.4,2.6,1.2,3.2,0.1
		c0.7-1.4-1.1-1.8-1.9-2.4c-10.3-7.9-18.5-17.7-25.3-28.7c-4.8-7.7-6.6-16.3-7.8-25.1c-0.8-6-0.5-6-6.4-7
		C148.2,213.4,147.1,214.3,147.2,217.5z M533.2,249.7c0,0.5,0,1,0,1.5c0.1,10.2-3.4,13.8-13.3,14.1c-0.3,0-0.7-0.1-1-0.1
		c-1.4,0.1-1.7,1-1.1,2c2.3,3.6,5.7,5.8,9.7,6.3c3.2,0.4,5.6-1.7,7.2-4.5c1.4-2.4,3-4.8,4-7.4c3.2-8.6,3.6-17.2-0.4-25.7
		c-1.5-3.2-4.1-5.2-7.7-5.6c-3.2-0.4-5.2,1.8-6.2,4.1c-0.9,1.8,1.4,3.2,3.1,3.9C533,240.4,533.5,244.8,533.2,249.7z M528.8,251.3
		c0-7.3-7.9-13.6-14.7-11.8c-1.5,0.4-1.6,1.5-1.8,2.7c-0.4,3.1-0.9,6.2-1.2,9.4c-1,8.5-1.3,7.2,6.4,8.9
		C525.3,262.1,528.8,259.2,528.8,251.3z M422.8,357.3c-1.2-5-0.5-10.2-0.8-15.3c0-0.8,0-1.8-0.9-2.1c-1-0.4-1.5,0.4-2.1,1
		c-2.9,3.4-6,6.7-8.7,10.3c-2.4,3.2-4.7,6.5-6.1,10.3c-0.9,2.3-0.5,3.7,2.2,3.5c5-0.4,9.9-1.3,14.4-3.8
		C422.2,360.3,423,359.1,422.8,357.3z M360,338c5.5-1.3,11.4-3,17-5.5c3.3-1.5,3.7-5.5,1.5-9.1c-2.1-3.5-4.3-1.5-6.7-0.2
		c-5.3,2.9-9.2,7.5-13.8,11.3c-0.7,0.6-1.6,1.4-1.2,2.5C357.4,338.3,358.6,337.9,360,338z M38,73.3c-0.3-1.2,1-4-1.5-4.5
		c-2.2-0.4-3,2.1-3.8,4c-0.1,0.2-0.1,0.3-0.2,0.5c-2.1,6.6-4.3,13.2-6.3,19.9c-0.5,1.6-0.5,3.3-0.2,4.9c0.3,1.5,1,2.9,2.8,3.1
		c2.1,0.2,2.3-1.4,2.6-2.9c1.4-5.8,3.2-11.5,5.5-17C37.9,78.9,38.3,76.5,38,73.3z M15.3,138.7c0.1,0.8,0.1,2.6,0.3,4.4
		c0.2,2.3,1.8,3.8,4,3.6c2.2-0.3,1.7-2.5,1.6-4.1c-0.4-6-0.8-11.9,0.3-17.8c0.3-1.5,1-3.2-1-3.8c-2.1-0.6-2.9,1.3-3.3,2.9
		C16,128.4,15.3,133,15.3,138.7z M419.6,333.4c0.8-0.5,1.8-0.9,1.8-2.1c0-0.6-0.7-0.7-1.1-0.4c-0.6,0.5-1.2,1.1-1.6,1.8
		C418.5,333.4,419.1,333.5,419.6,333.4z"/>
	<path fill-rule="evenodd" clip-rule="evenodd" fill="#FEFEFE" d="M189,508c6.9-20.2,13.7-40.3,20.6-60.5
		c3.4-9.9,6.8-19.9,10.1-29.8c3.1-9.4,6.8-12.1,16.8-12.1c3.9,0,7.6,0.4,11.4,1.1c4.4,0.9,7.4,3.3,8.8,7.8
		c9.1,29.7,19.4,59.1,29.2,88.7c0.5,1.6,0.8,3.2,1.2,4.8c-5,0-10,0-15,0c0.3-1.4-0.1-2.6-0.5-3.9c-6.4-19.4-12.7-38.8-19-58.3
		c-0.9-2.8-2.9-4-5.3-4.6c-2.2-0.6-4.6-0.9-6.9-1c-5.4-0.4-8.8,2.1-10.2,7.4c-3.6,13.7-7.1,27.4-10.5,41.1
		c-1.6,6.4-3.8,12.7-4.6,19.4C206.3,508,197.7,508,189,508z M229.2,420.9c-0.2,6.6,3.5,10.5,10.2,10.9c7.1,0.3,10.9-2.7,11.2-9
		c0.4-6.9-3.8-11.9-10.3-12.2C234.4,410.4,229.4,415,229.2,420.9z"/>
	<path fill-rule="evenodd" clip-rule="evenodd" fill="#212121" d="M254,508c-5-20.4-9.3-40.9-14.8-61.1c-0.3-1.2-0.5-2.4-1.9-2.7
		c-1.5-0.3-2.4,0.9-3.1,2.1c-1.3,2.2-1.1,4.8-1.7,7.3c-4.1,16.8-8,33.7-12,50.5c-0.3,1.3-0.8,2.6-0.5,3.9c-1.7,0-3.3,0-5,0
		c0.7-6.6,3-12.9,4.6-19.4c3.4-13.7,6.9-27.4,10.5-41.1c1.4-5.3,4.8-7.7,10.2-7.4c2.3,0.2,4.6,0.5,6.9,1c2.5,0.6,4.4,1.8,5.3,4.6
		c6.3,19.5,12.7,38.9,19,58.3c0.4,1.3,0.8,2.6,0.5,3.9c-1.7,0-3.3,0-5,0c-5.4-19.2-12.5-37.9-17.4-57.3c-0.7-2.8-2-6.3-5.3-5.2
		c-3.1,0.9-1.3,4.3-0.6,6.5c5.4,18.7,10.9,37.4,16.4,56C258,508,256,508,254,508z"/>
	<path fill-rule="evenodd" clip-rule="evenodd" fill="#FDFDFD" d="M521,508c3-5.9,6-11.8,8.9-17.8c1.3-2.6,3-4.1,6-4.5
		c9.2-1.5,17.8-5.1,27-6.9c3.5,0.3,3.1,2.4,1.9,4.5c-2.9,5.2-6,10.3-9,15.6c-1,1.8-3.2,3.6-2.1,5.8c1.2,2.2,3.9,1.3,6,1.3
		c24.1,0.1,48.3,0,72.4,0.1c2.3,0,4.7-0.3,6.8,0.9c0,0.3,0.1,0.6,0.1,1C599.7,508,560.3,508,521,508z"/>
	<path fill-rule="evenodd" clip-rule="evenodd" fill="#A6A6A6" d="M177,508c9.7-33.7,21.5-66.8,32.6-100.1c0.8-2.4,1.5-4.9,4.8-4.8
		c1.8,0.1,3.8-0.4,5,1.5c1.1,1.9-0.6,3.1-1.5,4.3c-1.9,2.6-3,5.6-4,8.6c-9.6,28.5-19.1,57.1-28.6,85.7c-0.5,1.6-0.8,3.2-1.2,4.8
		C181.7,508,179.3,508,177,508z"/>
	<path fill-rule="evenodd" clip-rule="evenodd" fill="#A1A1A1" d="M260,508c-5.5-18.7-11-37.3-16.4-56c-0.6-2.2-2.4-5.5,0.6-6.5
		c3.4-1,4.6,2.4,5.3,5.2c4.9,19.4,12,38,17.4,57.3C264.7,508,262.3,508,260,508z"/>
	<path fill-rule="evenodd" clip-rule="evenodd" fill="#494949" d="M488.9,492c1.8,0,3.7-0.1,5.5,0c3.9,0.3,5.1,2.1,3.7,5.6
		c-0.8,1.8-1.9,3.5-2.2,5.5c-0.3,1.9-1.7,2.7-3.5,2.9c1.2-3.2,3.4-6,3.9-9.5c0.1-1,1.4-2.3-0.2-3c-1.3-0.6-2,0.7-2.6,1.7
		c-2.2,4.2-4.3,8.5-6.5,12.7c-1.7,0-3.3,0-5,0c-0.7-2,0.9-3,1.7-4.4C485.7,499.9,488.6,496.6,488.9,492z"/>
	<path fill-rule="evenodd" clip-rule="evenodd" fill="#F7F7F7" d="M511,508c2.3-4.8,4.6-9.5,6.8-14.3c0.6-1.4,1.2-2.8,2.4-3.7
		c1.4-1.1,3.4-2.7,4.8-1.6c1.7,1.2-0.5,2.9-1.1,4.2c-1.7,3.9-3.6,7.8-5.5,11.7c-0.6,1.2-1.3,2.3-0.5,3.7
		C515.7,508,513.3,508,511,508z"/>
	<path fill-rule="evenodd" clip-rule="evenodd" fill="#FEFEFE" d="M488.9,492c-0.3,4.5-3.2,7.9-5.2,11.6c-0.8,1.4-2.4,2.4-1.7,4.4
		c-2.7,0-5.3,0-8,0c2.9-4.1,5.6-8.2,8.7-12.1C484.2,494,485.5,491.1,488.9,492z"/>
	<path fill-rule="evenodd" clip-rule="evenodd" fill="#FEFEFE" d="M487,508c2.2-4.2,4.3-8.5,6.5-12.7c0.5-1.1,1.2-2.3,2.6-1.7
		c1.6,0.7,0.4,2,0.2,3c-0.5,3.5-2.8,6.3-3.9,9.5c-0.1,2,2.1,0.8,2.7,1.9C492.3,508,489.7,508,487,508z"/>
	<path fill-rule="evenodd" clip-rule="evenodd" fill="#FEFEFE" d="M497,508c0.6-0.7,1.3-1.4,1.9-2.1c3,0.7,6.2-0.3,9,1.2
		c0.2,0.3,0.2,0.6,0.1,0.9C504.3,508,500.7,508,497,508z"/>
	<path fill-rule="evenodd" clip-rule="evenodd" fill="#ACACAC" d="M1.9,154.9c0,5.1,0,10.1,0,15.2c-0.3,0-0.6,0-0.8-0.1
		c0-5,0-10,0-15C1.3,154.9,1.6,154.9,1.9,154.9z"/>
	<path fill-rule="evenodd" clip-rule="evenodd" fill="#868686" d="M257.1,75.3c0.8-6.6,1.6-13.2,2.6-19.8c0.4-2.7-0.1-4.7-2.1-6.7
		c-4.7-4.7-9.2-9.7-13.7-14.6c-2.8-3-2.7-3.3,1.2-4.1c6.5-1.3,13.1-2.7,19.6-3.7c2.8-0.5,4.5-1.8,5.7-4.2c3-5.6,6.1-11.1,9.2-16.6
		c0.6-1.1,0.9-2.9,2.3-3c1.7-0.1,2,1.9,2.7,3.2c3,5.4,6.1,10.7,8.9,16.2c1.3,2.6,3.1,4,6,4.5c6.6,1.1,13.1,2.4,19.6,3.7
		c3.6,0.7,3.7,1.2,1.2,3.9c-4.4,4.8-8.8,9.6-13.3,14.2c-2.2,2.2-3.1,4.3-2.5,7.5c1.1,6.6,1.6,13.2,2.5,19.8c0.4,3-0.4,3.6-3.1,2.2
		c-5.8-2.9-11.8-5.4-17.6-8.4c-3-1.5-5.5-1.6-8.5-0.1c-5.6,2.9-11.4,5.5-17.2,8.1C257.2,79.1,257,78.8,257.1,75.3z"/>
	<path fill-rule="evenodd" clip-rule="evenodd" fill="#8B8B8B" d="M540.4,95.2c0.6-4.8,1.1-10.9,2.2-17c0.7-4.1,0.1-7.3-3.1-10.3
		c-4.2-4-8-8.4-12-12.7c-3.2-3.4-3.2-3.5,1.6-4.5c5.9-1.2,11.7-2.6,17.6-3.4c3.8-0.5,5.9-2.4,7.5-5.6c2.9-5.6,6.1-11.1,9.1-16.7
		c1.5-2.9,2.5-2.4,3.8,0.1c3,5.7,6.3,11.3,9.3,17.1c1.5,2.9,3.4,4.5,6.8,5c6.6,1,13.1,2.5,19.6,3.7c2.8,0.5,3,1.5,1.1,3.4
		c-4.7,4.9-9.3,10-14.1,14.9c-1.9,1.9-2.7,3.8-2.3,6.6c1.1,6.7,1.5,13.6,2.5,20.3c0.5,3.8-0.8,3.5-3.4,2.2c-6-2.9-12.1-5.6-18-8.6
		c-2.5-1.2-4.5-1.3-7-0.1c-6.1,3.1-12.3,5.8-18.5,8.7C541.1,99.4,539.7,99.5,540.4,95.2z"/>
	<path fill-rule="evenodd" clip-rule="evenodd" fill="#696969" d="M426,151c0.5-3.6,0.8-7.9,1.6-12.2c0.6-3.2,0.1-5.7-2.4-8
		c-3.3-3.1-6.2-6.5-9.3-9.7c-1.6-1.7-1.8-2.7,0.9-3.2c4.6-0.8,9.1-2,13.7-2.6c3-0.4,4.7-1.9,6-4.5c2-4,4.3-7.9,6.4-11.8
		c1.2-2.2,2.1-2.9,3.5-0.1c2.2,4.3,4.7,8.4,6.9,12.7c1.1,2.1,2.6,3.2,5,3.6c4.8,0.7,9.5,1.9,14.2,2.7c2.7,0.5,2.6,1.5,1,3.2
		c-3.3,3.5-6.5,7.1-9.9,10.5c-1.7,1.7-2.2,3.4-1.9,5.8c0.8,4.6,1.2,9.2,1.7,13.9c0.4,3.7,0.3,3.8-3.3,2.2c-4.1-1.9-8.2-3.7-12.2-5.8
		c-2.3-1.2-4.3-1.1-6.6,0c-4.1,2.1-8.4,4.1-12.6,6C425.9,155,425.8,154.9,426,151z"/>
	<path fill-rule="evenodd" clip-rule="evenodd" fill="#B3B3B3" d="M705.3,147.7c0.5-3.6,0.9-7.3,1.5-10.9c0.4-2.7-0.1-4.8-2.2-6.8
		c-2.7-2.5-5.1-5.2-7.7-7.8c-1.6-1.6-1.7-2.8,0.9-3.3c3.3-0.6,6.5-1.6,9.8-1.8c3.8-0.3,6-2.2,7.5-5.5c1.3-2.9,3-5.6,4.6-8.3
		c1.2-2.2,2.4-1.9,3.5,0.2c1.7,3.1,3.5,6.1,5,9.2c1.3,2.6,3.3,3.9,6.2,4.4c3.6,0.5,7.2,1.4,10.8,2c2.2,0.4,2.5,1.5,1,3
		c-2.4,2.5-4.7,5.2-7.3,7.5c-2.7,2.4-3.3,5.2-2.7,8.5c0.5,2.9,0.8,5.9,1.2,8.9c0.1,1.1,0.8,2.5-0.4,3.2c-1.1,0.7-2.2-0.3-3.2-0.8
		c-2.7-1.3-5.4-2.5-8.1-3.9c-2.9-1.5-5.6-1.6-8.5,0c-2.9,1.5-6,2.8-9,4.2C706.2,150.5,704.9,150.4,705.3,147.7z"/>
	<path fill-rule="evenodd" clip-rule="evenodd" fill="#ACACAC" d="M759,362.1c3.9-8.4-0.4-15.7-8.1-21.8c-2-1.6-1.8-3,1-3.6
		c2.9-0.5,5.8-1.3,8.8-1.7c3.6-0.5,6.1-2,7.7-5.5c1.2-2.7,2.9-5.2,4.3-7.9c1.2-2.3,2.3-2.7,3.7-0.1c1.6,2.9,3.4,5.8,4.8,8.8
		c1.3,2.7,3.3,4,6.1,4.5c3.4,0.6,6.8,1.4,10.3,2.1c2.2,0.4,2.4,1.5,1,3.1c-2.3,2.6-4.5,5.3-7,7.8c-2.3,2.2-2.8,4.8-2.3,7.7
		c0.4,2.8,0.8,5.6,1.1,8.4c0.5,4.1,0.1,4.4-3.8,2.6c-2.9-1.3-5.8-2.6-8.5-4.1c-2.3-1.2-4.3-1.2-6.6,0c-2.8,1.5-5.7,2.8-8.5,4.1
		C758.8,368.3,758.8,368.3,759,362.1z"/>
	<path fill-rule="evenodd" clip-rule="evenodd" fill="#313131" d="M196.1,91.9c-1.7,1.4,0.1,1.5,0.7,1.8
		c10.5,5.4,21.6,9.5,32.5,13.9c4,1.6,8.2,2.7,11.6,5.6c-1.9,0-3.5-0.9-5.2-1.5c-17.6-6.5-35.3-12.9-52.8-19.7
		c-25.3-9.9-51.1-18.7-75.9-30c0.1-3.7,3.6-1.9,5.2-3.2c11.2,4.3,22.3,8.7,33.5,13c15.5,6.1,31,12.2,46.5,18.3
		C193.5,90.6,194.8,91.3,196.1,91.9z"/>
	<path fill-rule="evenodd" clip-rule="evenodd" fill="#313131" d="M201.2,93.9c-0.4-0.2-0.8-0.4-1.1-0.6
		C200.4,93.5,200.8,93.7,201.2,93.9z"/>
	<path fill-rule="evenodd" clip-rule="evenodd" fill="#313131" d="M198.4,92.9c-0.5-0.2-0.9-0.4-1.4-0.7
		C197.5,92.4,197.9,92.7,198.4,92.9z"/>
	<path fill-rule="evenodd" clip-rule="evenodd" fill="#696969" d="M67.3,369.4c0.5-4,1-8.3,1.7-12.6c0.5-3.4-0.2-6-2.8-8.5
		c-3.2-2.9-5.9-6.3-8.9-9.4c-1.6-1.7-1.8-2.6,0.9-3.1c4.6-0.8,9.1-2,13.7-2.6c3-0.4,4.7-1.9,6-4.5c2.1-4.2,4.5-8.2,6.7-12.3
		c1.1-2.2,2-1.9,3,0c2.4,4.4,4.9,8.7,7.2,13.1c1.1,2.1,2.6,3.2,5,3.5c4.6,0.7,9.1,1.9,13.7,2.6c3.5,0.5,2.9,1.7,1,3.6
		c-3.1,3.2-6,6.7-9.3,9.8c-2,2-2.5,4.1-2.1,6.8c0.6,4.1,1.2,8.2,1.7,12.4c0.5,4.3,0.2,4.6-3.6,2.9c-3.8-1.7-7.6-3.4-11.3-5.3
		c-2.6-1.4-4.8-1.5-7.5-0.1c-3.9,2.1-8.1,3.8-12.2,5.8C68.2,372.5,66.7,372.9,67.3,369.4z"/>
	<path fill-rule="evenodd" clip-rule="evenodd" fill="#FEFEFE" d="M506,348c-3.5-7.9-3.3-16.4-2.7-24.6c1.1-15.7,4.4-30.9,13.4-44.3
		c1.8-2.7,3.4-3.4,6.5-2c7.1,3,10.6,1.7,15.5-4.3c8.8-10.9,10.3-31,0.7-42.3c-0.8-1-2-1.9-1.3-3.5c0.9-2.2,2.2,0,3.3-0.2
		c5.4-1.2,10.9-0.6,16.4-0.9c2.1-0.1,4.7-3.8,4.1-5.7c-0.4-1.2-1.4-1.3-2.4-1.4c-5.8-0.6-11.5-0.5-17,1.7c-0.4,0.2-1,0.7-1.2,0.5
		c-0.7-0.4-0.4-1.2-0.1-1.8c1.7-4,4-7.6,6.4-11.3c2.9-4.5,6.1-8.7,9.7-12.6c2.9-3.1,6.5-5.1,10.6-6.1c3.4-0.9,5.8-0.1,7.8,2.7
		c7.7,10.7,16.8,20.2,25.6,29.9c-0.3,3.2,2,5.1,3.5,7.4c1.5,2.2,4.2,3.7,4.2,6.9c-1.6-0.9-3.1-1.9-4.7-2.7c-0.9-0.5-2.2-0.7-2.6,0.4
		c-0.9,2.8-1.9,5.7-2,8.6c-0.1,2.2,2.7,2.7,4.4,3.5c6.9,3.5,14,6.8,21,10.1c2.5,3.5,5.1,7,7.6,10.5c1.3,1.9,1.7,4,1.3,6.2
		c-0.5,3-0.9,5.9-1.5,8.8c-3.2,15-8,29.5-12.2,44.2c-2.3,7.9-6.6,14.9-11.8,21.3c-5.8,7.2-12.7,13.1-19.6,19.2
		c-5.3,4.7-11.5,7.1-18.1,7.5C545.1,375.5,523.1,367.7,506,348z M538,329.1L538,329.1c-0.7-0.9-1.5-1.2-2.3-0.3
		c-0.8,0.8-0.6,1.7,0.2,2.4c0.1,0.3,0.2,0.5,0.4,0.8c0.3,0.4,0.5,0.7,0.8,1.1c2.7,3.1,6.2,4.7,9.9,6.1c0.6,0.6,1.3,0.8,2.1,0.8
		c0.3,0.2,0.5,0.3,0.8,0.3c0.8,0.9,1.9,1.3,3,1.6c1.8,0.6,3.9,0.8,4.7-1.3c0.7-1.9-0.7-3-2.5-3.5c-5.6-1.7-10.6-4.7-15.8-7.1
		C538.8,329.5,538.4,329.3,538,329.1z M561,301L561,301c4.4,0.1,4.7-4.2,6.7-6.5c2.2-2.7,1.2-5.6-2.2-5.8
		c-5.8-0.4-10.9-2.8-16.5-3.7c-1.9-2.5-3.6-1.6-4,0.8c-0.6,4.2-1.4,8.8,1.7,12.3c3.2,3.6,7.3,5.5,12.4,4
		C559.9,302,560.5,301.7,561,301z M573.1,326.8c2,0,4-0.3,6,0.1c2.8,0.5,4-0.6,4.5-3.2c0.2-1.3,0.6-2.6,1-3.9
		c0.7-2.3-0.2-3.1-2.5-2.8c-3.3,0.4-6.6,1.3-9.9,1.3c-14.4,0.2-27.8-2.9-39.1-12.4c-0.8-0.7-1.6-1.5-2.6-0.8
		c-1.1,0.8-1.1,2.1-0.4,3.1c0.7,1.1,1.7,2,2.7,2.9C544.1,322,557.4,327.5,573.1,326.8z M612.2,281.9c1.2,0.1,2.3,0.2,3.5,0.1
		c1.1,0,2.5,0.5,2.6-1.3c0.1-1.4-0.8-2.1-2.1-2.3c-0.5-0.1-1-0.2-1.5-0.2c-8.8-0.9-17.1-2.9-23.2-10.1c-1.2-1.4-5.4,0-6.6,2.2
		c-1.5,2.7,1.1,2.4,2.4,3c0.4,0.2,0.9,0.4,1.3,0.8C595.2,280.4,603.7,281,612.2,281.9z"/>
	<path fill-rule="evenodd" clip-rule="evenodd" fill="#B2B2B2" d="M638.9,507c-2.2-1.2-4.5-0.9-6.8-0.9c-24.1,0-48.3,0-72.4-0.1
		c-2.1,0-4.8,0.9-6-1.3c-1.2-2.2,1-4,2.1-5.8c2.9-5.2,6-10.3,9-15.6c1.2-2.2,1.6-4.2-1.9-4.5c10.1-2.6,20.5-4.2,30.5-7.5
		c1.4-0.5,3-0.3,4.4,0.3c4.5,1.7,9.2,1.1,13.8,2c0.6,0.1,1.4,0.4,1.6-0.5c0.1-0.8-0.7-1-1.3-1.3c-2.3-0.9-4.7-1.8-7-2.7
		c-0.6-0.2-1.6-0.5-1.6-0.8c-0.1-1.1,0.9-1.2,1.7-1.4c5.3-1.6,10.5-3.2,15.1-6.4c0.6-0.4,1.6-0.5,1.7-1.7
		c-21.6,6.5-43.6,10.6-65.5,15.6c-19.8,4.6-39.7,8.5-60,10.3c-4,0.4-8,0.7-11.9-0.5c-3.6-1.1-6.9-2.7-9-5.9
		c-12.8-19.1-27-37.1-40.3-55.9c-7.1-9.9-12.4-20.9-19.4-30.8c-1.3-1.9-0.5-2.6,1.4-2.9c13.8-2.4,26.2-8.4,38.1-15.6
		c0.3,0.9,0.4,2,0.9,2.8c11.7,20.7,23.4,41.4,35.1,62.2c1.5,2.6,3.6,3.2,6.4,2.5c3.4-0.9,5.8-3.1,8.2-5.5c4-4,7.6-3.4,10.1,1.7
		c1.6,3.3,3.1,6.6,4.2,10.1c0.9,3,2.7,4.1,5.5,4c5.6-0.4,11.3-0.6,16.9-1.4c20.2-2.8,39.7-8.4,59.3-13.7
		c11.9-3.3,23.4-7.5,34.3-13.5c7.2-4,9.7-8.8,8.5-16.8c-0.1-0.8-0.2-1.7-0.3-2.5c8.7,5.6,13.6,13.5,14.1,23.8
		c0.8,16.7-1.9,32.7-8.3,48.2C645.5,485.4,641.5,496,638.9,507z"/>
	<path fill-rule="evenodd" clip-rule="evenodd" fill="#B1B1B1" d="M304.9,185c-3.9,17.2-10.7,33.2-20.5,47.9c-2,3.1-4.5,2.2-7,1.7
		c-14.4-2.9-28.7-5.7-43.1-8.6c-51.8-10.3-103.5-20.6-155.3-30.9c-1.1-0.2-2.3-0.4-3.4-0.8c-1.1-0.4-1.6-1-0.8-2.3
		c11.9-19.7,19.5-41.1,25.1-63.3c0.3,1.5,0.8,2.8,2.6,3.2c4.9,1.1,9.2,3.7,14.1,4.8c10.5,2.5,21,5.3,31.5,8
		c49,12.6,98.1,25.3,147.1,37.8C298.4,183.6,301.5,185.4,304.9,185z"/>
	<path fill-rule="evenodd" clip-rule="evenodd" fill="#FEFEFE" d="M304.9,185c-3.5,0.4-6.5-1.3-9.7-2.1
		c-49.1-12.6-98.1-25.2-147.1-37.8c-10.5-2.7-20.9-5.5-31.5-8c-4.9-1.2-9.3-3.7-14.1-4.8c-1.8-0.4-2.3-1.7-2.6-3.2
		c4.8-18.7,7.2-37.7,6.6-57c-0.1-3.3-0.1-6.6,0.5-9.9c24.8,11.3,50.6,20.1,75.9,30c17.5,6.8,35.2,13.2,52.8,19.7
		c1.7,0.6,3.3,1.5,5.2,1.5c16.6,6.7,33.2,13.4,49.8,20c2.9,1.2,5.8,2.5,8.8,3.4c2.9,0.9,4.6,2.8,5.2,5.4
		C307.6,156.3,308.4,170.6,304.9,185z"/>
	<path fill-rule="evenodd" clip-rule="evenodd" fill="#5A5A5A" d="M714.9,245.9c1.1,8.2-1.5,15.9-3.9,23.5
		c-7.4,23.1-12.5,46.7-14.6,70.8c-1.3,15.2-1,30.6,1.1,45.9c1.9,14.2,4.5,28.2,4.8,42.6c0.3,14.6-5.6,26.5-14,37.6
		c-8.7,11.6-20.5,19.3-33.1,26.1c-1.4,0.8-2.9,2.1-4.6,0.8c-1.9-1.5-0.7-3.3-0.2-5c4.6-14.3,9.1-28.6,11.7-43.4
		c2.2-12.2-0.1-23.9-3.5-35.4c-2.1-7.2-5.3-13.9-6-21.6c-0.8-8.5-0.7-17-0.2-25.4c0.4-7.1,1.5-14.3,1.6-21.4
		c0.3-18.3,4.8-35.6,11.5-52.4c2-5.1,2.5-5.2,7.2-2.5c2.3,1.4,4.2,2.2,5.4-1.2c0.7-2,2.5-2,4.2-1.6c1.6,0.4,3.2,1,4.8,1.4
		c8.5,2.3,15.2-2.5,16-11.3c0.7-7.9-2.1-14.3-8.4-19.2c-7.1-5.5-15.4-8.8-23.8-11.4c-4.9-1.5-10.6,0-14.9,3.8c-1.1,1-2.3,2-3.2,3.2
		c-2.1,2.8-3.9,2.9-7,0.8c-15.6-10.9-30-23.2-42.4-37.7c-5.2-6.1-12.2-10.3-16.9-16.9c-3-4.2-6.3-8.2-8.5-12.9
		c1.5,0.7,2.9,1.5,4.2,2.6c11.1,9.5,22.8,18.3,35.1,26.2c15.9,10.2,32.9,17.1,51.6,20C684.8,234.4,700.5,238,714.9,245.9z"/>
	<path fill-rule="evenodd" clip-rule="evenodd" fill="#FEFEFE" d="M644.1,402.9c0.1,0.8,0.1,1.7,0.3,2.5c1.2,8-1.3,12.8-8.5,16.8
		c-10.9,6-22.4,10.2-34.3,13.5c-19.6,5.4-39.1,10.9-59.3,13.7c-5.6,0.8-11.3,1-16.9,1.4c-2.8,0.2-4.6-1-5.5-4
		c-1.1-3.5-2.6-6.8-4.2-10.1c-2.5-5.1-6.2-5.7-10.1-1.7c-2.4,2.4-4.8,4.6-8.2,5.5c-2.8,0.8-4.9,0.1-6.4-2.5
		c-11.7-20.7-23.4-41.4-35.1-62.2c-0.5-0.8-0.6-1.9-0.9-2.8c8.5-6.2,16.6-12.9,23.1-21.3c1.2-1.5,2.2-2.7,3.4,0
		c5.2,10.6,11.4,20.7,16.2,31.5c6.2,13.6,5.6,27.9,4.8,42.2c0,0.8-0.8,1.9,0.1,2.1c0.8,0.3,1.1-1,1.4-1.7c2.5-5.7,3.9-11.7,4.6-17.8
		c0.1-0.7,0.1-1.3,0.1-2c0.1-1.2,0.5-2.5,1.6-2.8c1.3-0.4,2,0.9,2.6,1.9c1.6,2.6,2.6,5.4,3,8.4c0.8,5.9,1.9,11.8,2,17.9
		c0,0.6-0.6,1.8,0.7,1.9c0.3,0,0.8-1,1-1.6c1.2-4.8,2.5-9.6,2.2-14.8c-0.4-5.4-0.3-5.5,4.9-6.6c19.1-3.9,38.2-7.4,57.7-9
		c7.5-0.6,14.9-1.9,22.1-3.8c6.9-1.8,13.7-1.7,20.8-0.3C633.3,398.4,639.4,398.5,644.1,402.9z"/>
	<path fill-rule="evenodd" clip-rule="evenodd" fill="#808080" d="M714.9,245.9c-14.3-7.9-30-11.5-46-14c-18.7-3-35.8-9.8-51.6-20
		c-12.3-7.9-24-16.7-35.1-26.2c-1.3-1.1-2.7-2-4.2-2.6c-0.6-0.6-1.2-1.2-1.7-1.9c-1.5-2.3-2.7-4.1-3.4,0.4c-0.2,1.5-1.5,2.1-2.8,2.5
		c-15.7,5.3-26.2,16-32,31.3c-1,2.5-2.4,4.8-3.9,6.9c-0.8,1.1-1.8,2.9-3.5,1.9c-1.2-0.7-0.7-2.4-0.2-3.7c1.9-5.1,3.9-10.4,6.8-15
		c6.3-10,12.8-19.8,21.7-27.9c13.4-12.2,28.8-19.5,47.3-18.9c18,0.6,35.3,4.4,52.1,10.6c7.2,2.7,13.6,7.2,19.4,12.2
		c11.9,10.1,20.9,22.7,29.9,35.3C713.8,225.5,714.7,235.7,714.9,245.9z"/>
	<path fill-rule="evenodd" clip-rule="evenodd" fill="#B1B1B1" d="M608.9,236.1c0-3.2-2.7-4.7-4.2-6.9c-1.6-2.3-3.9-4.2-3.5-7.4
		c16.3,17.6,36.4,30.5,55.2,45.1c6.7,5.2,7.1,6.4,4,14.2c-9.4,23.4-14.7,47.7-15.5,72.9c-0.3,10.2-1.1,20.3-1.7,30.4
		c-0.3,4.9-0.5,4.5-5.5,4.7c-16.9,0.9-33.9-0.1-50.6,4.3c-8.1,2.1-16.5,1.6-24.7,3.4c-4.7,1-9.7-0.8-13.9-3.3
		c-13.1-7.7-25.8-16-34.3-29.2c-3.3-5.2-7-10.1-8.2-16.4c17.1,19.7,39.1,27.5,64.7,25.8c6.6-0.4,12.8-2.8,18.1-7.5
		c6.9-6.1,13.8-12.1,19.6-19.2c5.2-6.4,9.5-13.4,11.8-21.3c4.3-14.7,9-29.3,12.2-44.2c0.6-2.9,1-5.9,1.5-8.8
		c0.4-2.2,0.1-4.3-1.3-6.2c-2.5-3.5-5-7-7.6-10.5c2.8,0.6,3.2-1.5,3.8-3.4c0.6-2,0.1-3.4-1.7-4.6
		C621.1,243.8,614.6,240.6,608.9,236.1z"/>
	<path fill-rule="evenodd" clip-rule="evenodd" fill="#FEFEFE" d="M434.9,249.9c1.1-2.6,2.1-5.2,3.2-7.9c2.7-6.9,4.8-13.8,4.3-21.3
		c-0.2-3.5,0.6-7,0.2-10.5c-0.5-5,2.6-7.3,6-9.4c3.2-2,5.8-0.9,7,2.7c1,3.1,0.7,6.3,1,9.4c0.8,11.1,1.4,22.3-2.4,33.1
		c-0.3,0.9-1.2,2.2-0.1,2.7c1.5,0.7,1.8-1,2.2-2c3.6-11.9,6.4-23.8,4.2-36.3c-0.3-1.6-0.5-3.3-0.6-5c-0.1-1.6-0.8-3.6,1.4-4.3
		c1.8-0.6,3.6-0.5,5.2,0.7c2.3,1.7,3.3,4.1,3.6,6.9c1.1,7.6,0.8,15.3,0.7,22.9c-0.1,7-0.4,14-1.4,20.9c-0.1,0.6-0.4,1.5,0.3,1.8
		c0.7,0.2,1-0.6,1.2-1.3c2.2-11,6.5-21.7,5.3-33.3c-0.3-3.1,0-6.2,3.2-7.7c2.1-1,5.3,1.8,6.3,5.9c3.5,13.7,3.4,27.3-0.9,40.9
		c-0.3,0.9-1.4,2.2-0.4,2.7c1.3,0.7,1.8-1,2.3-1.9c6.3-9.1,8.6-19.3,8.1-30.3c-0.1-2.8-0.2-5.7-0.2-8.5c0-1.7-0.1-3.5,2.1-3.9
		c2-0.3,4-0.1,5.2,1.9c0.9,1.5,1.3,3.1,1.4,4.7c0.8,9.6,1.5,19.2,0.5,28.9c-2.2,19.5-16.8,37-35.8,42.6c-8.4,2.5-8.5,2.7-7.5,11.3
		c0.5,5.1,0.6,10.3,0.2,15.5c-1.5,1-3,2.1-4.5,3.1c-2.7,1.9-5.4,4-8.7,4.7c-2.7,0.6-5.3,0.3-5.6-3.1c-0.5-5.8-1.8-11.4-2.2-17.3
		c-0.6-8.4-0.1-17.1-2.8-25.1c-2.5-7.3-3.2-14.5-3.2-22C433.9,258.1,435,254.1,434.9,249.9z"/>
	<path fill-rule="evenodd" clip-rule="evenodd" fill="#B1B1B1" d="M95.9,117c-5.4,26.1-14.6,50.8-26.3,74.7c-1.6,3.2-3.5,4-6.7,3.1
		c-14.8-4-29.6-7.8-44.4-11.9c-5.2-1.4-5.1-1.7-2.2-6.3c7-11.3,10.9-23.9,14.7-36.5c3.8-12.6,7.7-25.2,10.1-38.1
		C59.4,106.7,77.3,113.1,95.9,117z"/>
	<path fill-rule="evenodd" clip-rule="evenodd" fill="#FEFEFE" d="M95.9,117c-18.6-3.8-36.5-10.2-54.8-15c0-0.6,0.1-1.3,0.1-1.9
		c0.6-0.6,0.8-1.4,0.6-2.2c1.6-10.5,3.3-21,4.9-31.5c1.7-11,0.6-21.9-1.3-32.8c-0.9-5-0.7-5.2,4.3-3.6c15.4,4.9,30.7,9.9,46.1,14.6
		c3.6,1.1,5.2,3,5.5,6.6c1.3,14,1,27.9-0.8,41.8C99.5,101.1,98.1,109.1,95.9,117z"/>
	<path fill-rule="evenodd" clip-rule="evenodd" fill="#BBBBBB" d="M416,336c-8.7,8.8-14.7,19.2-18.8,30.8c-0.7,2.1-0.8,3.8,0.4,5.7
		c7.7,13,14.3,26.7,23.2,39c2.7,3.8,5.2,7.7,7.5,11.8c6.4,11.4,14.3,21.6,22.3,31.8c2.7,3.5,5.3,6.8,3.5,11.7
		c-0.8,2.1-1.9,3.5-4.1,3.9c-9.3,2-17.6,0.1-24.2-6.9c-11.1-11.8-20.4-25-28.8-38.9c-7.4-12.4-15.5-24.4-21.8-37.5
		c-3.7-7.7-7.2-15.4-10.9-23c-1-2.2-1.2-3.5,1.8-4c18.1-2.8,33.7-10.9,47.3-23C414.2,336.8,415,336.1,416,336L416,336z"/>
	<path fill-rule="evenodd" clip-rule="evenodd" fill="#FEFEFE" d="M419,226c-0.8-2.2-1.4-4.4-2.3-6.5c-1.9-4.5-6.5-6.8-11.4-5.7
		c-4.7,1-8.7,3.1-12.1,6.5c-4.4-2.4-9-4.1-13.7-5.5c-7.8-2.2-15.9-3.1-23.6-5.7c-3.6-1.2-7-3.1-10.9-3c1.2-6,2.4-12.1,3.5-18.1
		c0.6-3.1,0.9-6.2,0.8-9.4c-0.1-4.4,0.1-4.6,4.1-3c11.3,4.4,23.1,7.6,34.4,12.1c15,5.9,30.5,10.5,45.7,16c2.4,0.9,3.4,2,3.4,4.6
		c0.2,7.7,0.4,15.3-0.9,22.9C429.9,230.7,424.8,227.3,419,226z"/>
	<path fill-rule="evenodd" clip-rule="evenodd" fill="#FEFEFE" d="M382,317c-5.9-11-10.7-22.5-17.1-33.3c-2-3.3-4.2-6.2-7.5-8.5
		c-8.4-5.8-12.1-17.8-10.4-28.6c0.3-2.2,1.6-3.1,3.9-2.7c3.3,0.6,6.6,0.8,9.8,1.7c6.8,1.9,13.7,2.5,20.7,2.8
		c5.6,0.2,6.7-0.8,7.6-6.3c1.5-9.6,4.9-18,14.6-22.3c5.9-2.6,9.1-0.5,9.3,6.1c-1.9-0.1-3.9-0.8-5.6,1.1c-2.2,2.5-4.9,4.6-6.1,7.8
		c-1.9,4.9-4.6,9.6-6.2,14.7c-2.6,8.6-8,14.9-16.6,18c-7,2.6-8.4,6.2-4.7,12.5c5,8.4,10.2,16.8,15.2,25.2
		C392.5,311.1,389.2,316.5,382,317z"/>
	<path fill-rule="evenodd" clip-rule="evenodd" fill="#FEFEFE" d="M238,377.9c-5.5-0.1-10.9-0.2-16.4-0.4c-3.3-0.1-4.8-1.5-5-5.2
		c-0.7-16.7-0.3-33.5-0.7-50.2c0.1-5.8,0.2-11.6,0.3-17.5c0-2,0.3-3.8,3-3.3c4.8,1,9.6,0.7,14.4,0.7c3.2,0,4.5,1.2,4.4,4.5
		c-0.1,10,0,20,0,30C238,350.3,238,364.1,238,377.9z"/>
	<path fill-rule="evenodd" clip-rule="evenodd" fill="#B1B1B1" d="M434.9,249.9c0.1,4.2-1,8.2-1,12.4c0,7.5,0.7,14.7,3.2,22
		c2.7,8,2.2,16.7,2.8,25.1c0.4,5.8,1.8,11.5,2.2,17.3c0.3,3.5,2.9,3.7,5.6,3.1c3.3-0.7,6-2.8,8.7-4.7c1.5-1,3-2.1,4.5-3.1
		c0.1,0.7,0.1,1.3,0.3,2c2.3,8.1-1.4,13.6-7.7,18.1c-4.9,3.5-9.7,7-14.6,10.6c-0.5,0.4-1.1,0.8-1.7,1.1c-6.3,3.3-8.3,2.3-8.5-4.7
		c-0.5-19.3-2.1-38.5-4-57.7c-0.4-4.3-1-8.3-2.9-12.4c-2.1-4.3-1.3-9,1.9-12.6C428,261.2,431.6,255.7,434.9,249.9z"/>
	<path fill-rule="evenodd" clip-rule="evenodd" fill="#B1B1B1" d="M382,317c7.2-0.5,10.5-5.9,7-11.8c-5-8.4-10.2-16.7-15.2-25.2
		c-3.7-6.3-2.3-9.9,4.7-12.5c8.6-3.2,14-9.4,16.6-18c1.6-5.1,4.2-9.8,6.2-14.7c1.3-3.2,3.9-5.3,6.1-7.8c1.7-1.8,3.6-1.2,5.6-1.1
		c-0.9,5.1-4.3,8.9-6.8,13.1c-3.5,6-5.9,12.1-6.2,19.2c-0.2,4.4-1.5,8.9-4.6,12.4c-3.4,4.1-3.5,4.1-0.2,8.3c0.3,0.3,0.5,0.7,0.8,1
		c0.4,0.7,0.9,1.3,1.3,2c0.2,0.3,0.5,0.6,0.7,0.9l0,0c2.7,4.8,5.7,9.5,9,14c1.4,2.6,2.8,5.3,4.3,7.8c1.3,2.2,1.1,4.1-0.5,5.9
		c-5.9,7-13.3,11.9-21.5,15.7c-2.4,1.1-3.4-0.5-4.2-2.2C384,321.9,383,319.4,382,317z"/>
	<path fill-rule="evenodd" clip-rule="evenodd" fill="#B1B1B1" d="M238,377.9c0-13.8,0-27.6,0-41.4c0-10-0.1-20,0-30
		c0-3.2-1.2-4.5-4.4-4.5c-4.8,0-9.7,0.3-14.4-0.7c-2.7-0.5-3,1.3-3,3.3c-0.1,5.8-0.2,11.6-0.3,17.5c-1.3-6.8-0.5-13.6-0.6-20.4
		c0-3.2,0-6.3,0.3-9.5c0.5-5.7,0.7-5.8,6.3-5.5c7.3,0.3,14.6,0.6,21.9,0.1c6.7-0.5,6.7-0.4,6.7,6.6c0,26.5,0,52.9,0.1,79.4
		c0,4.6-0.5,5.3-5,5.4C242.9,378.3,240.4,378,238,377.9z"/>
	<path fill-rule="evenodd" clip-rule="evenodd" fill="#B1B1B1" d="M345,206c3.9-0.1,7.3,1.8,10.9,3c7.7,2.6,15.8,3.5,23.6,5.7
		c4.8,1.4,9.4,3.1,13.7,5.5c-4.1,5.3-7.8,10.7-7.8,17.8c0,2.8-1.7,3.4-4,2.9c-14.6-3.2-29.1-6.4-43.7-9.6c-2-0.4-2.3-1.4-1.5-3.2
		C339.9,221.1,341.9,213.3,345,206z"/>
	<path fill-rule="evenodd" clip-rule="evenodd" fill="#FEFEFE" d="M319.9,185.9c2.6-16.6,1.8-33.1-2.3-49.4c-0.4-1.4-1.2-3.1,0-4.2
		c1.1-1,2.5,0.4,3.6,0.8c4.8,2,9.5,4,14.2,5.9c3,1.2,4.6,3.4,5.5,6.5c3.1,11.5,3.7,23.2,2.4,35.1c-0.5,4.5-1,8.9-1.5,13.4
		c-0.5,0.1-1,0.5-1.4,0.4c-6-2.1-12.2-3.9-18.4-5.5C320.5,188.4,320.2,187.2,319.9,185.9z"/>
	<path fill-rule="evenodd" clip-rule="evenodd" fill="#B1B1B1" d="M319.9,185.9c0.3,1.3,0.6,2.5,2.2,2.9c6.2,1.5,12.3,3.4,18.4,5.5
		c0.4,0.1,0.9-0.2,1.4-0.4c-2.7,15.4-9,29.5-16.4,43.1c-3.6,6.6-4.3,6.9-11.9,5.3c-3.2-0.7-6.4-1.7-9.7-2.5
		c-2.3-0.6-2.9-1.6-1.6-3.9C311.2,220.4,316.2,203.3,319.9,185.9z"/>
	<path fill-rule="evenodd" clip-rule="evenodd" fill="#FEFEFE" d="M197,236c3.3,5.5,6.5,11.1,11.3,15.7c4,3.9,8.7,6.6,14.1,8.1
		c7.8,2.1,15.7,2.5,23.7,1.4c8.6-1.2,15.4-5.7,20.9-12.3c5,2.9,10.7,3.6,16.2,5.2c-5.2,7.6-13.4,10.8-21.6,13.4
		c-19.4,6.2-38.3,5-56.6-4.3c-12.7-6.4-20.6-16.5-24-30.2C186.4,233.1,191.5,235.7,197,236z"/>
	<path fill-rule="evenodd" clip-rule="evenodd" fill="#FDFDFD" d="M300.1,257.1c-4.6,6.7-11.7,10.4-18.5,14.1
		c-20,10.9-41.7,13.1-64,11.3c-11.7-0.9-20.3-8-28.3-15.6c-10.7-10.3-18.7-22.5-23.5-36.6c0.6-1.8,1.9-1.3,3.2-1
		c2,0.6,4.1,1.1,6.1,1.6c3.4,7.5,5.7,15.6,10.7,22.4c4.8,6.6,11,11.7,18,15.4c12.5,6.5,25.8,8.9,40,7.2c11.6-1.4,22.1-5.7,32.6-10.2
		c5.2-2.2,8.5-6.7,12.4-10.7C292.4,256.8,296.3,256.9,300.1,257.1z"/>
	<path fill-rule="evenodd" clip-rule="evenodd" fill="#B6B6B6" d="M6,159.9c0.2-20,3-39.8,7.9-59.2c4.7-18.7,9.7-37.4,17.6-55.1
		c1.7-3.8,3.7-7.5,5.5-11.2c0.5-0.9,1.1-1.8,2.2-1.7c1.6,0.1,1.5,1.5,1.7,2.6c0.9,4.5,0.8,8.4-1.9,12.7C29.9,62.8,24.3,79,19.8,95.6
		c-5.7,20.8-9.7,41.8-8.7,63.5c0.1,2.5,0.3,5,0.5,7.5c0.1,1.7,0.3,3.3,0.2,5c-0.2,2.6-0.5,6.2-3.5,6.2c-2.8,0-2.1-3.6-2.2-5.8
		C5.9,167.9,6,163.9,6,159.9z"/>
	<path fill-rule="evenodd" clip-rule="evenodd" fill="#9D9D9D" d="M147.2,217.5c-0.1-3.2,1-4.1,5.7-3.3c5.9,0.9,5.5,1,6.4,7
		c1.2,8.7,3,17.4,7.8,25.1c6.9,10.9,15,20.8,25.3,28.7c0.8,0.6,2.7,1,1.9,2.4c-0.6,1.1-2.2,0.3-3.2-0.1c-9.6-3.2-18.5-7.9-25.2-15.6
		C155.3,249.4,148.1,235.5,147.2,217.5z"/>
	<path fill-rule="evenodd" clip-rule="evenodd" fill="#5D5D5D" d="M503,365c0-0.5,0-1,0.1-1.5c0.4-1.2,0.2-3.1,1.7-3.3
		c1.5-0.3,2,1.6,2.7,2.6c2.3,3.2,4.6,6.5,6.9,9.8c5.8,8.5,13.3,15.2,21.9,20.9c1.8,1.2,4,2.2,3.4,4.9c-0.6,2.6-3,2.9-5.1,3.3
		c-5.1,0.8-10.3,0.1-15.4,1c-2,0.4-3-1.9-4.6-2.6c-4.8-1.9-7-5.4-7.8-10.3c-0.3-2.1-2.4-3.6-2.7-5.8c2.2,0.6,2.4-1.2,2.8-2.5
		c0.8-2.9,1.6-5.7,2.3-8.6C510.2,368.7,507.8,365.6,503,365z"/>
	<path fill-rule="evenodd" clip-rule="evenodd" fill="#B3B3B3" d="M453.1,368.1c-12.1,7.5-25.1,12.8-39.3,14.9
		c-2.9,0.4-4.7-0.5-6-3.1c-4.1-8.6-7.2-8.2,4.6-10.6c10.6-2.1,20.3-6.1,29.7-11.1C443.8,363.6,447.3,367.2,453.1,368.1z"/>
	<path fill-rule="evenodd" clip-rule="evenodd" fill="#FCFCFC" d="M678.2,249.9c7.3,2.5,13.4,6.7,17.7,13.1
		c3.9,5.9,3.7,10.6-0.2,14.5c-1.9,2-4.1,2.6-6.8,2.2c-12.7-2-22.1-9.5-30.3-18.7c-2.4-2.7-3.9-6.4-0.5-9.9c0.6,0.2,1.4,0.7,1.9,0.5
		c5.1-1.7,10.2-1.7,15.5-0.9C676.2,250.8,677.2,250.2,678.2,249.9z M688,271.5c1.4,0.3,2.7,0.4,3.5-1c1-1.8,0.5-3.6-0.8-5.1
		c-5.2-5.9-11.6-9.8-19.6-10.7c-2.3-0.3-4.5,0.3-5.4,2.6c-0.7,2,0.5,4,2.1,5.2C673.9,267,680.2,271,688,271.5z"/>
	<path fill-rule="evenodd" clip-rule="evenodd" fill="#FEFEFE" d="M453.1,368.1c-5.8-0.9-9.2-4.4-11-9.8c10.5-7.6,21.2-15,29.3-25.4
		c1.3-1.7,1.6-1.4,2.5,0.3c4.9,10,4.8,11.9-2.8,20.1C465.8,359,460.1,364.4,453.1,368.1z"/>
	<path fill-rule="evenodd" clip-rule="evenodd" fill="#B2B2B2" d="M223,382c9.1-0.1,18.3,0,27.4-0.2c3.4-0.1,4.4,1.4,4.3,4.4
		c0,2.3,0.1,4.6,0.1,7c0,6.1,0,6.7-6,6.4c-8.3-0.4-16.6,0-24.8-0.6C222.3,393.4,223.3,387.7,223,382z"/>
	<path fill-rule="evenodd" clip-rule="evenodd" fill="#B9B9B9" d="M395.2,344.2c-8.9,6.2-18.5,10.5-29.4,11.5
		c-4.2,0.4-9.2-4.3-8.7-8.4c0.2-1.9,1.6-2.7,3.4-3.3c9.6-3.1,19.3-5.9,28.6-10C391.1,337.4,390.6,342.4,395.2,344.2z"/>
	<path fill-rule="evenodd" clip-rule="evenodd" fill="#FCFCFC" d="M533.2,249.7c0.3-4.9-0.2-9.3-5.7-11.4c-1.7-0.6-3.9-2-3.1-3.9
		c1.1-2.2,3-4.5,6.2-4.1c3.6,0.5,6.2,2.4,7.7,5.6c4,8.5,3.6,17.1,0.4,25.7c-1,2.6-2.6,5-4,7.4c-1.6,2.7-3.9,4.9-7.2,4.5
		c-4.1-0.5-7.5-2.7-9.7-6.3c-0.7-1.1-0.3-1.9,1.1-2c0.3,0,0.7,0.1,1,0.1c10-0.3,13.4-3.9,13.3-14.1
		C533.2,250.7,533.2,250.2,533.2,249.7z"/>
	<path fill-rule="evenodd" clip-rule="evenodd" fill="#B1B1B1" d="M419,226c5.7,1.3,10.9,4.7,16.9,5c-1.4,7.7-4.8,14.4-10,20.3
		c-5,0.2-9.3-2.4-14.1-3.2l0,0c-0.3-0.3-0.6-0.5-0.9-0.8c-1.2-1.9-0.6-3.8,0.2-5.6c1.7-3.9,3.4-7.8,6.1-11.2
		C418.3,229.1,419.2,227.8,419,226z"/>
	<path fill-rule="evenodd" clip-rule="evenodd" fill="#FDFDFD" d="M395.2,344.2c-4.6-1.8-4.1-6.7-6.2-10.1
		c6.7-4.8,14.1-8.6,20.3-14.2c3.1-2.8,6.1-5.6,8.2-9.3c0.4-0.6,0.6-1.7,1.7-1.2c0.7,0.3,0.5,1.1,0.6,1.7c0.1,3.5,0.2,7,0.4,10.5
		c0.1,2-1.1,3-2.2,4.2C411.2,332.9,403.2,338.6,395.2,344.2z"/>
	<path fill-rule="evenodd" clip-rule="evenodd" fill="#B5B5B5" d="M315.8,186.9c-2.4,10.7-5.1,21.3-10,31.2
		c-2.5,5.2-4.8,10.6-7.2,15.8c-2,4.4-2.8,4.7-7.2,3.6c-2.4-0.6-3.1-1.4-1.4-3.6c2.7-3.6,4.8-7.6,7.1-11.4
		c7-11.9,11.1-24.8,13.1-38.4c0.1-0.8,0.5-1.5,0.8-2.3C310.5,185.5,313.3,186.1,315.8,186.9z"/>
	<path fill-rule="evenodd" clip-rule="evenodd" fill="#FCFCFC" d="M528.8,251.3c0,7.9-3.4,10.8-11.2,9.1c-7.7-1.6-7.4-0.4-6.4-8.9
		c0.4-3.1,0.8-6.2,1.2-9.4c0.2-1.1,0.3-2.3,1.8-2.7C520.9,237.7,528.8,244,528.8,251.3z"/>
	<path fill-rule="evenodd" clip-rule="evenodd" fill="#FBFBFB" d="M315.8,186.9c-2.6-0.8-5.3-1.4-5-5.1c2-13.6,1-27.2-1.1-40.7
		c-0.4-2.6-0.5-5.3-3.2-7.3c-1.9-1.4,0.3-3.2,1.3-4.4c1.2-1.4,2.4-0.5,3.2,0.7c1.5,2.4,2.5,5,3.2,7.8c2.9,12.3,4.6,24.8,2.9,37.5
		C316.6,179.3,317.3,183.2,315.8,186.9z"/>
	<path fill-rule="evenodd" clip-rule="evenodd" fill="#606060" d="M422.8,357.3c0.2,1.8-0.6,3-2,3.8c-4.5,2.5-9.4,3.4-14.4,3.8
		c-2.7,0.2-3.1-1.2-2.2-3.5c1.4-3.8,3.7-7.1,6.1-10.3c2.7-3.6,5.8-6.9,8.7-10.3c0.5-0.6,1.1-1.4,2.1-1c1,0.4,0.9,1.3,0.9,2.1
		C422.2,347.1,421.6,352.3,422.8,357.3z"/>
	<path fill-rule="evenodd" clip-rule="evenodd" fill="#B2B2B2" d="M283.1,254.1c-5.5-1.5-11.2-2.3-16.2-5.2
		c5.4-11.5,5.4-11.5,17.5-8.6c0.8,0.2,1.6,0.3,2.4,0.6c4,1.1,4.3,1.8,2.3,5.5C287.5,249.2,285.8,252,283.1,254.1z"/>
	<path fill-rule="evenodd" clip-rule="evenodd" fill="#606060" d="M360,338c-1.4-0.1-2.6,0.2-3.1-1c-0.4-1.1,0.5-1.9,1.2-2.5
		c4.6-3.8,8.5-8.4,13.8-11.3c2.3-1.3,4.5-3.3,6.7,0.2c2.2,3.6,1.7,7.6-1.5,9.1C371.4,335.1,365.5,336.7,360,338z"/>
	<path fill-rule="evenodd" clip-rule="evenodd" fill="#FCFCFC" d="M38,73.3c0.3,3.2-0.1,5.6-1.1,7.9c-2.3,5.5-4.1,11.2-5.5,17
		c-0.4,1.5-0.5,3.1-2.6,2.9c-1.7-0.2-2.5-1.6-2.8-3.1c-0.3-1.6-0.3-3.3,0.2-4.9c2.1-6.6,4.2-13.3,6.3-19.9c0.1-0.2,0.1-0.3,0.2-0.5
		c0.7-1.9,1.6-4.4,3.8-4C39,69.3,37.7,72.1,38,73.3z"/>
	<path fill-rule="evenodd" clip-rule="evenodd" fill="#B1B1B1" d="M197,236c-5.5-0.3-10.5-2.9-16.1-3c-1.2-2.9-1.5-6.1-1.9-9.2
		c-0.3-2.6,0.8-3.8,3.5-3c0.3,0.1,0.6,0.2,1,0.2C193.7,220.9,194.9,228.8,197,236z"/>
	<path fill-rule="evenodd" clip-rule="evenodd" fill="#FEFEFE" d="M223,382c0.3,5.7-0.7,11.4,1,17c-15.3,0.4-11.8,1.3-12.2-11.2
		c0-1.2,0.2-2.3,0.1-3.5c-0.2-2.1,0.9-2.6,2.7-2.5C217.4,381.9,220.2,382,223,382z"/>
	<path fill-rule="evenodd" clip-rule="evenodd" fill="#B3B3B3" d="M300.1,257.1c-3.8-0.2-7.6-0.2-11.1-2.1c1.6-2.5,3.3-5,4.8-7.6
		c3.1-5,5.5-5.7,11.1-3.2c1.8,0.8,1.6,1.8,1,3.2C304.3,250.8,302.9,254.4,300.1,257.1z"/>
	<path fill-rule="evenodd" clip-rule="evenodd" fill="#353535" d="M403.1,277.8c3.5,4.7,6.5,9.8,8.9,15.2c-1.3,1.9-2.1,4.2-5,4
		c-3.3-4.5-6.3-9.2-9-14C399.3,280.8,400,278.1,403.1,277.8z"/>
	<path fill-rule="evenodd" clip-rule="evenodd" fill="#F5F5F5" d="M15.3,138.7c0-5.7,0.6-10.3,1.8-14.8c0.4-1.6,1.2-3.4,3.3-2.9
		c2,0.5,1.3,2.3,1,3.8c-1.1,5.9-0.8,11.9-0.3,17.8c0.1,1.6,0.6,3.8-1.6,4.1c-2.2,0.3-3.7-1.2-4-3.6
		C15.4,141.3,15.4,139.5,15.3,138.7z"/>
	<path fill-rule="evenodd" clip-rule="evenodd" fill="#8B8B8B" d="M507.9,507.1c-2.9-1.5-6.1-0.4-9-1.2c1.2-4,3.5-7.5,5.8-11
		c0.7-1,1.4-1.9,2.5-2.4c1.8-0.7,4.1-1.9,5.6-0.8c1.4,1-0.3,3.1-0.8,4.6C510.8,500,509.3,503.5,507.9,507.1z"/>
	<path fill-rule="evenodd" clip-rule="evenodd" fill="#808080" d="M503,365c4.7,0.6,7.2,3.7,6.2,7.8c-0.7,2.9-1.5,5.8-2.3,8.6
		c-0.4,1.4-0.6,3.1-2.8,2.5C499,377.9,501.3,371.4,503,365z"/>
	<path fill-rule="evenodd" clip-rule="evenodd" fill="#B2B2B2" d="M175.2,230.9c-2-0.5-4.1-1.1-6.1-1.6c-1.3-0.3-2.6-0.8-3.2,1
		c-1.4-2.9-1.3-6.1-1.1-9.2c0.1-1.4,0.1-4,2.5-3.4c2.3,0.5,5.7-0.7,6.5,3C174.2,224,174.7,227.5,175.2,230.9z"/>
	<path fill-rule="evenodd" clip-rule="evenodd" fill="#464646" d="M418,259.1c-3-0.7-6-1.4-9-2.2c-1.1-3.6,0.1-6.5,2.9-8.8
		c4.8,0.8,9.1,3.4,14.1,3.2C421.5,252,419.2,255,418,259.1z"/>
	<path fill-rule="evenodd" clip-rule="evenodd" fill="#C6C6C6" d="M678.2,249.9c-0.9,0.3-1.9,1-2.8,0.9c-5.2-0.8-10.4-0.8-15.5,0.9
		c-0.5,0.2-1.2-0.3-1.9-0.5C663,245.8,670.4,245.3,678.2,249.9z"/>
	<path fill-rule="evenodd" clip-rule="evenodd" fill="#808080" d="M419.6,333.4c-0.6,0.1-1.1,0-0.8-0.7c0.3-0.7,1-1.3,1.6-1.8
		c0.4-0.3,1.1-0.2,1.1,0.4C421.4,332.5,420.5,332.9,419.6,333.4z"/>
	<path fill-rule="evenodd" clip-rule="evenodd" fill="#B1B1B1" d="M41.8,97.8c0.2,0.8,0,1.6-0.6,2.2C41.1,99.2,41.3,98.5,41.8,97.8z
		"/>
	<path fill-rule="evenodd" clip-rule="evenodd" fill="#353535" d="M412,293c0.3,0.4,0.6,0.7,0.8,1.1
		C412.6,293.7,412.3,293.3,412,293z"/>
	<path fill-rule="evenodd" clip-rule="evenodd" fill="#464646" d="M411,247.3c0.3,0.3,0.6,0.5,0.9,0.8
		C411.6,247.8,411.3,247.5,411,247.3z"/>
	<path fill-rule="evenodd" clip-rule="evenodd" fill="#353535" d="M398,282.9c-0.2-0.3-0.5-0.6-0.7-0.9
		C397.5,282.3,397.8,282.6,398,282.9z"/>
	<path fill-rule="evenodd" clip-rule="evenodd" fill="#353535" d="M396,280.1c-0.3-0.3-0.5-0.7-0.8-1
		C395.4,279.4,395.7,279.7,396,280.1z"/>
	<polygon fill-rule="evenodd" clip-rule="evenodd" fill="#BBBBBB" points="416,336.1 416.2,335.8 416,336 	"/>
	<path fill-rule="evenodd" clip-rule="evenodd" fill="#B3B3B3" d="M321.7,468.3c0.4-3.1,0.8-6.3,1.2-9.4c0.5-3.3-0.3-6.2-3-8.5
		c-2-1.7-3.8-3.7-5.6-5.7c-0.9-1-2.8-1.8-2.2-3.6c0.5-1.4,2.3-1,3.5-1.3c2.6-0.5,5.2-1.3,7.8-1.5c4.2-0.3,6.6-2.5,8.3-6.2
		c1.2-2.7,2.8-5.3,4.3-7.9c1-1.8,2.1-2,3.2,0c1.8,3.2,3.6,6.4,5.3,9.6c1.2,2.4,2.9,3.8,5.7,4.2c3.1,0.4,6.2,1.2,9.3,1.8
		c1.3,0.3,2.9,0.1,3.4,1.6c0.4,1.2-0.9,2.1-1.8,2.8c-7.7,6-10.5,13.4-7.5,23.1c1.2,3.9-0.3,5.1-3.6,2.9c-8.3-5.3-16-5.6-24.3,0
		C322.2,472.7,321.6,472,321.7,468.3z"/>
	<path fill-rule="evenodd" clip-rule="evenodd" fill="#787878" d="M290.9,339.3c0-0.3,0-0.5,0.1-0.6c2.1-6.6-0.1-11.7-5.4-16.1
		c-3.2-2.7-2.9-3.6,1.1-3.9c7.3-0.5,12-3.9,14.4-10.7c0.9-2.5,2.3-3.4,3.7-0.2c0.1,0.2,0.2,0.3,0.2,0.4c2.3,6.7,7,9.8,14.1,10.4
		c4,0.3,4,0.8,1.3,3.9c-0.4,0.5-0.8,1.1-1.3,1.5c-4.4,3.4-5.9,7.7-4.2,13.1c0.3,0.9,0.2,2,0.3,3c0.2,2.4-1.1,2.7-2.7,1.6
		c-6.3-4.3-12.4-4.3-18.8,0C290,344.1,290.8,341,290.9,339.3z"/>
	<path fill-rule="evenodd" clip-rule="evenodd" fill="#2A2A2A" d="M229.2,420.9c0.2-6,5.2-10.6,11.1-10.3
		c6.5,0.3,10.6,5.2,10.3,12.2c-0.3,6.3-4.1,9.4-11.2,9C232.6,431.5,228.9,427.5,229.2,420.9z M246.2,415.8c-0.2-0.1-0.4-0.2-0.6-0.3
		c0.1,0.2,0.2,0.4,0.4,0.6c0.2,1.8,1.2,3.4,1.3,5.3c0,1.1-0.8,3.2,0.8,3.2c1.5,0,1.1-2.1,1.1-3.4C249,418.9,248.4,416.9,246.2,415.8
		z M245.1,421.5c0-4-3-7.5-6.4-7.6c-3.7-0.1-6.7,2.8-6.8,6.5c-0.1,4.6,2.9,8.3,6.9,8.3C241.8,428.6,245.1,425,245.1,421.5z"/>
	<path fill-rule="evenodd" clip-rule="evenodd" fill="#232323" d="M573.1,326.8c-15.7,0.7-29-4.8-40.3-15.6c-1-0.9-1.9-1.9-2.7-2.9
		c-0.7-1.1-0.6-2.4,0.4-3.1c1-0.7,1.8,0.1,2.6,0.8c11.3,9.5,24.8,12.5,39.1,12.4c3.3,0,6.6-0.9,9.9-1.3c2.2-0.3,3.2,0.5,2.5,2.8
		c-0.4,1.3-0.8,2.6-1,3.9c-0.4,2.6-1.7,3.7-4.5,3.2C577.2,326.5,575.1,326.8,573.1,326.8z"/>
	<path fill-rule="evenodd" clip-rule="evenodd" fill="#222222" d="M608.9,236.1c5.7,4.5,12.2,7.8,18.2,11.9c1.8,1.2,2.3,2.6,1.7,4.6
		c-0.6,2-1,4-3.8,3.4c-7-3.4-14-6.7-21-10.1c-1.7-0.8-4.4-1.3-4.4-3.5c0.1-2.9,1.1-5.8,2-8.6c0.4-1.1,1.6-0.9,2.6-0.4
		C605.8,234.2,607.4,235.2,608.9,236.1z"/>
	<path fill-rule="evenodd" clip-rule="evenodd" fill="#242424" d="M612.2,281.9c-8.4-0.9-17-1.4-23.6-7.9c-0.3-0.3-0.8-0.6-1.3-0.8
		c-1.3-0.6-3.9-0.3-2.4-3c1.2-2.2,5.4-3.6,6.6-2.2c6.1,7.2,14.4,9.2,23.2,10.1c0.5,0,1,0.2,1.5,0.2c1.3,0.2,2.2,1,2.1,2.3
		c-0.1,1.8-1.6,1.3-2.6,1.3C614.5,282,613.3,281.9,612.2,281.9z"/>
	<path fill-rule="evenodd" clip-rule="evenodd" fill="#232323" d="M559.1,302c-5.1,1.5-9.2-0.4-12.4-4c-3.1-3.5-2.3-8.1-1.7-12.3
		c0.4-2.4,2.1-3.3,4-0.8c1.9,5.2,5.7,8.8,9.9,12.2c1.2,1,3.2,1.6,2.1,3.8l0,0C560.1,300.9,559.6,301.4,559.1,302z"/>
	<path fill-rule="evenodd" clip-rule="evenodd" fill="#B7B7B7" d="M561,301c1.1-2.2-0.9-2.8-2.1-3.8c-4.1-3.4-7.9-7-9.9-12.2
		c5.6,0.9,10.7,3.3,16.5,3.7c3.4,0.2,4.4,3.1,2.2,5.8C565.7,296.8,565.4,301.1,561,301z"/>
	<path fill-rule="evenodd" clip-rule="evenodd" fill="#2A2A2A" d="M536.2,331.9c-0.2-0.2-0.3-0.5-0.4-0.8c0.4-1,1.1-1.8,2.1-2.1l0,0
		c0.4,0.2,0.9,0.4,1.3,0.7c5.3,2.4,10.3,5.4,15.8,7.1c-0.7,2.8-3.1,2.7-5.2,3.2c-0.3,0-0.6-0.1-0.8-0.3c-0.6-0.6-1.3-0.8-2.1-0.8
		c-3.7-1.3-7.3-3-9.9-6.1C536.7,332.6,536.5,332.3,536.2,331.9z"/>
	<path fill-rule="evenodd" clip-rule="evenodd" fill="#767676" d="M549.9,340.1c2.1-0.5,4.5-0.5,5.2-3.2c1.8,0.5,3.2,1.6,2.5,3.5
		c-0.8,2.1-2.8,1.9-4.7,1.3C551.8,341.4,550.7,341,549.9,340.1z"/>
	<path fill-rule="evenodd" clip-rule="evenodd" fill="#757575" d="M537.9,329.1c-1.1,0.3-1.7,1.1-2.1,2.1c-0.8-0.7-1-1.6-0.2-2.4
		C536.5,327.9,537.3,328.2,537.9,329.1z"/>
	<path fill-rule="evenodd" clip-rule="evenodd" fill="#767676" d="M546.9,339.1c0.8-0.1,1.5,0.2,2.1,0.8
		C548.2,339.9,547.5,339.7,546.9,339.1z"/>
	<path fill-rule="evenodd" clip-rule="evenodd" fill="#B7B7B7" d="M559.1,302c0.5-0.6,1.1-1.1,1.9-1.1
		C560.5,301.7,559.9,302,559.1,302z"/>
	<path fill-rule="evenodd" clip-rule="evenodd" fill="#757575" d="M539.3,329.8c-0.4-0.2-0.9-0.4-1.3-0.7
		C538.4,329.3,538.8,329.5,539.3,329.8z"/>
	<path fill-rule="evenodd" clip-rule="evenodd" fill="#757575" d="M536.2,331.9c0.3,0.4,0.5,0.7,0.8,1.1
		C536.7,332.6,536.5,332.3,536.2,331.9z"/>
	<path fill-rule="evenodd" clip-rule="evenodd" fill="#2B2B2B" d="M688,271.5c-7.8-0.5-14.1-4.5-20.1-9c-1.6-1.2-2.9-3.2-2.1-5.2
		c0.8-2.3,3.1-2.9,5.4-2.6c8,0.9,14.4,4.7,19.6,10.7c1.3,1.4,1.8,3.2,0.8,5.1C690.7,271.9,689.3,271.9,688,271.5z M671.2,260.2
		c0.1,0.2,0.1,0.3,0.2,0.5c0.9,2.2,10,7.2,12.2,6.6c1.2-0.3,2.4-1.2,1-2.4c-3.4-2.9-7.2-5.2-11.7-5.9
		C672.1,259,671.2,259.1,671.2,260.2z"/>
	<path fill-rule="evenodd" clip-rule="evenodd" fill="#B2B2B2" d="M245.1,421.5c0,3.5-3.3,7.1-6.4,7.1c-3.9,0-7-3.7-6.9-8.3
		c0.1-3.6,3.2-6.5,6.8-6.5C242.1,413.9,245.1,417.5,245.1,421.5z"/>
	<path fill-rule="evenodd" clip-rule="evenodd" fill="#D5D5D5" d="M246.2,415.8c2.3,1.1,2.8,3.1,2.9,5.3c0,1.3,0.4,3.4-1.1,3.4
		c-1.6,0-0.8-2.1-0.8-3.2c0-1.9-1-3.5-1.3-5.3L246.2,415.8z"/>
	<path fill-rule="evenodd" clip-rule="evenodd" fill="#D5D5D5" d="M245.9,416.1c-0.1-0.2-0.2-0.4-0.4-0.6c0.2,0.1,0.4,0.2,0.6,0.3
		C246.2,415.8,245.9,416.1,245.9,416.1z"/>
	<path fill-rule="evenodd" clip-rule="evenodd" fill="#616161" d="M671.2,260.2c0-1.2,0.9-1.2,1.7-1.1c4.6,0.6,8.3,3,11.7,5.9
		c1.4,1.2,0.2,2.1-1,2.4c-2.2,0.6-11.3-4.4-12.2-6.6C671.3,260.6,671.3,260.4,671.2,260.2z"/>
</g>
</svg>
