<?xml version="1.0" encoding="utf-8"?>
<!-- Generator: Adobe Illustrator 19.0.0, SVG Export Plug-In . SVG Version: 6.00 Build 0)  -->
<svg version="1.1" id="Layer_1" xmlns="http://www.w3.org/2000/svg" xmlns:xlink="http://www.w3.org/1999/xlink" x="0px" y="0px"
	 viewBox="0 0 100 100" style="enable-background:new 0 0 100 100;" xml:space="preserve">
<style type="text/css">
	.st0{fill:none;stroke:#00AEEF;stroke-miterlimit:10;stroke-dasharray:11.5967,11.5967;}
	.st1{fill:#00AEEF;}
	.st2{fill:#FEFEFE;}
	.st3{fill:#FDFDFD;}
</style>
<g>
	<circle class="st0" cx="50" cy="50" r="48"/>
	
		<animateTransform  type="rotate" fill="remove" attributeName="transform" accumulate="none" dur="10s" additive="replace" from="0 50 50" to="360 50 50" restart="always" calcMode="linear" attributeType="XML" repeatCount="indefinite">
		</animateTransform>
</g>
<circle class="st1" cx="50" cy="50" r="39.1"/>
<path class="st1" d="M0,2"/>
<path class="st1" d="M0,2"/>
<path class="st1" d="M0,2"/>
<path class="st2" d="M43,19.8c-0.4,0.6-0.9,1-1.3,1.5c-0.8,1-1.6,2-2.4,3c-0.5,0.8-1.1,1.6-1.5,2.5s-0.9,1.8-1,2.9
	c-0.1,0.5-0.2,1.1-0.2,1.6c0,1,0.2,1.9,0.9,2.7c0.1,0.1,0.2,0.2,0.4,0.1C38,34,38.2,34,38.4,34c1,0,2.1-0.1,3.1,0.2
	c1,0.2,1.9,0.5,2.8,1c0.9,0.5,1.7,1.1,2.3,1.9c1,1.2,1.8,2.5,2.2,4c0.2,0.9,0.3,1.7,0.3,2.6c0,1-0.2,2-0.5,3
	c-0.5,1.6-1.4,2.9-2.6,4.1c-0.8,0.8-1.8,1.4-2.9,1.8c-1.5,0.6-3.1,0.8-4.6,0.7c-0.9-0.1-1.7-0.3-2.5-0.6s-1.6-0.7-2.3-1.2
	c-1.1-0.8-2.2-1.7-3.1-2.8C30,48,29.5,47.3,29,46.5c-0.5-1-1-1.9-1.3-3c-0.3-0.8-0.4-1.6-0.6-2.5c-0.1-0.4,0-0.8,0-1.2s0-0.9,0-1.3
	c0-0.8,0.2-1.5,0.3-2.3c0.2-1,0.5-2,0.8-3c0.4-1,0.8-2,1.4-2.9c0.6-1.2,1.4-2.3,2.2-3.3c1-1.2,2.1-2.4,3.4-3.3
	c1.2-0.9,2.5-1.8,3.9-2.4C40.4,20.7,41.6,20.2,43,19.8z"/>
<path class="st2" d="M55.4,20.8c-0.4,1.5-0.8,3-1.1,4.5c-0.3,1.3-0.7,2.6-0.9,3.9c-0.2,1.2-0.4,2.4-0.6,3.6c0,0.3-0.1,0.5-0.1,0.8
	c0,0.4-0.2,0.5-0.5,0.4c-0.4-0.1-0.8,0-1.2-0.1C50.7,34,50.3,34,49.9,34c-0.2,0-0.2-0.1-0.2-0.2c0-0.3,0-0.5,0-0.8
	c0-0.1,0.1-0.2,0-0.3c-0.1,0-0.2,0.1-0.3,0.1c-0.4,0.4-0.9,0.7-1.4,0.9c-1.8,0.9-4,0.6-5.5-0.8c-1.2-1.2-1.8-2.6-2-4.2
	c-0.2-1.2-0.1-2.4,0.2-3.5c0.3-1.5,1-2.7,2.2-3.6c1.1-0.8,2.3-1.4,3.7-1.6c1.2-0.2,2.2-0.1,3.3,0.3c0.6,0.3,1.1,0.7,1.5,1.2
	c0.1,0.1,0.1,0.2,0.2,0.2c0.1,0.1,0.2,0.1,0.3-0.1c0.1-0.3,0.2-0.6,0.2-1c0-0.2,0.1-0.2,0.3-0.2c0.7,0.1,1.4,0.1,2.1,0.3
	C54.8,20.8,55.1,20.8,55.4,20.8z"/>
<path class="st2" d="M58,36.8c1.3-1.1,2.4-2.3,3.4-3.7c0.4-0.5,0.7-1.1,1-1.7c0.3-0.8,0.4-1.5-0.1-2.3c-0.3-0.5-0.8-0.7-1.3-0.7
	c-1.3,0-2.2,0.7-2.9,1.7c-1,1.5-1.7,3.1-2.3,4.7c-0.1,0.2-0.2,0.2-0.3,0.1c-0.5-0.2-0.9-0.3-1.4-0.4c-0.1,0-0.1-0.1-0.1-0.2
	c0.3-1.6,0.7-3.1,1.1-4.6c0.4-1.4,0.9-2.8,1.4-4.2c0.5-1.2,0.9-2.3,1.4-3.5c0.1-0.2,0.2-0.3,0.5-0.2c1,0.5,2.1,1,3.1,1.5
	c0.1,0.1,0.1,0.1,0.1,0.3c-0.3,0.4-0.5,0.9-0.8,1.3c-0.1,0.1-0.1,0.2-0.1,0.3c0.1,0.1,0.2,0,0.3,0c0.9-0.3,1.7-0.5,2.6-0.5
	c1.7,0,2.6,0.9,2.8,2.5c0.2,1.4-0.2,2.7-0.7,3.9c-0.6,1.6-1.5,3-2.6,4.2c-0.9,1-1.8,1.9-2.9,2.6c-0.1,0-0.1,0.1-0.2,0.1
	c-0.5,0.3-0.7,0.2-1-0.2C58.8,37.6,58.5,37.1,58,36.8z"/>
<path class="st2" d="M70.3,32.7c0.4,1,0.7,1.9,1,2.8c0.1,0.3,0.1,0.4-0.2,0.6c-1.4,1.1-2.8,2.2-4.2,3.3c-0.6,0.4-1.2,0.9-1.8,1.3
	c-0.3,0.2-0.3,0.3,0,0.4c1.5,0.8,3,1.5,4.5,2.2c0.8,0.4,1.6,0.8,2.4,1.2c0.2,0.1,0.3,0.3,0.2,0.5c-0.3,1-0.6,2-0.9,3
	c0,0,0,0.3-0.2,0.1c-1.3-0.7-2.6-1.3-3.9-2c-1-0.5-2-1-3-1.5s-2.1-1-3.1-1.5c0,0-0.1,0-0.1-0.1c-0.6-0.1-0.7-0.5-0.7-1
	s-0.1-1-0.2-1.5c0-0.3,0-0.4,0.3-0.6c1.8-1.2,3.7-2.4,5.5-3.7c1.4-0.9,2.7-1.9,4-3C69.9,33.1,70.2,33,70.3,32.7z"/>
<path class="st2" d="M58.6,50.1c-0.1-2.5,1.8-4.3,4.3-4.3c2.5,0,4.6,1,6.2,2.9c0.9,1,1.3,2.3,0.9,3.7c-0.6,1.8-2,2.9-4,3.1
	c-1.3,0.1-2.6-0.2-3.8-0.7c-0.2-0.1-0.5-0.1-0.6-0.3s0.1-0.4,0.2-0.6c0.6-1.4,1.2-2.7,1.9-4.1c0.2-0.4,0.4-0.9,0.6-1.3
	c0.1-0.1,0-0.2-0.1-0.2c-0.7-0.1-1.3-0.2-2,0.1c-1.1,0.4-1.6,1.7-1.4,2.6c0.1,0.3,0.1,0.6,0.3,0.8c0.1,0.1,0.1,0.2-0.1,0.3
	c-0.4,0.3-0.8,0.5-1.2,0.8c-0.2,0.1-0.2,0.1-0.3,0C59,51.9,58.5,51.1,58.6,50.1z"/>
<path class="st2" d="M61.3,59.7c0.5-0.1,0.9-0.3,1.2-0.6c0.2-0.2,0.4-0.4,0.4-0.7c0.1-0.2,0-0.4-0.2-0.6c-0.2-0.1-0.4-0.1-0.7,0
	c-0.6,0.3-1,0.7-1.6,1c-0.8,0.5-1.6,1-2.7,0.9c-1.5-0.2-2.9-1.1-2.8-2.9c0-0.8,0.4-1.5,1-2.1s1.3-1,2.1-1.2c0.3-0.1,0.4,0,0.5,0.2
	c0.2,0.5,0.4,0.9,0.6,1.4c0.1,0.2,0.1,0.2-0.1,0.3c-0.7,0.2-1.2,0.5-1.6,1c-0.2,0.3-0.3,0.9,0,1.1c0.3,0.3,0.6,0.2,0.9,0.1
	c0.5-0.2,1-0.5,1.4-0.8c0.7-0.4,1.4-0.8,2.2-1c1.5-0.3,3.5,0.9,3.1,2.9c-0.2,1.4-1.2,2.3-2.8,2.8c-0.3,0.1-0.5,0-0.6-0.3
	C61.7,60.6,61.5,60.2,61.3,59.7z"/>
<path class="st2" d="M51,63.8c0.2-0.4,0.5-0.7,0.7-1.1c0.1-0.1,0.1-0.2,0.3-0.1c0.9,0.5,1.8,1,2.7,1.5c0.3,0.2,0.5,0.3,0.8,0.4
	c0.5,0.1,0.9,0,1.2-0.5c0.3-0.4,0.2-1-0.1-1.4c-0.4-0.5-0.9-0.7-1.4-1c-0.6-0.3-1.2-0.7-1.8-1c-0.2-0.1-0.2-0.2-0.1-0.3
	c0.2-0.3,0.4-0.6,0.6-0.8c0.1-0.1,0.1-0.2,0.3-0.1c1.9,1.1,3.9,2.2,5.8,3.3c0.4,0.2,0.8,0.4,1.2,0.7c0.2,0.1,0.2,0.1,0.1,0.3
	c-0.2,0.3-0.4,0.6-0.5,0.9c-0.1,0.2-0.2,0.2-0.3,0.1c-0.7-0.4-1.4-0.8-2.1-1.2c-0.1-0.1-0.3-0.2-0.4-0.1c-0.1,0.1-0.1,0.3,0,0.4
	c0.1,0.7-0.1,1.4-0.6,1.9c-1,1-1.8,0.9-2.8,0.3C53.3,65.2,52.1,64.5,51,63.8z"/>
<path class="st2" d="M51,65.8c1.2,0,2.6,1,2.8,2.3c0.1,0.7-0.2,1.5-0.8,1.9c-0.1,0.1-0.6,0.1-0.1,0.5c0.3,0.2-0.2,0.6-0.2,0.9
	c0,0.2-0.2,0.1-0.3,0.1c-0.2-0.1-0.3-0.1-0.5-0.2c-1.2-0.5-2.5-1-3.7-1.5c-0.1,0-0.2,0-0.1-0.2c0.1-0.3,0.2-0.5,0.3-0.8
	c0.1-0.1,0.1-0.2,0.3-0.1s0.2,0,0.2-0.2c-0.1-0.3-0.1-0.7,0-1C48.9,66.5,49.9,65.8,51,65.8z"/>
<path class="st2" d="M49.8,82.8c0,0.1,0,0.3,0,0.5s0.1,0.4,0.1,0.5c0,0-0.1,0-0.2-0.1c0,0,0,0-0.1-0.1c0,0-0.1-0.1-0.2-0.1
	c-0.8-0.9-1.3-1.9-1.7-3c-0.4-1.2-0.6-2.4-0.7-3.7c-0.1-0.9,0-1.7,0-2.6c0-0.3,0.1-0.6,0.1-0.9s0.1-0.4,0.4-0.3
	c0.5,0.1,0.9,0.3,1.4,0.4c-0.3,1.7-0.5,3.5-0.4,5.3c0.1,1.3,0.3,2.6,0.8,3.8c0.1,0.1,0.1,0.2,0.2,0.2C49.7,82.7,49.8,82.7,49.8,82.8
	z"/>
<path class="st3" d="M49.5,81.6c-0.3-1.4-0.3-2.8-0.3-4.3c0.1-1.1,0.3-2.3,0.5-3.4c0-0.1,0.1-0.2,0.3-0.2h0.1
	c0.3,0.1,0.7,0.1,0.8,0.3c0.1,0.2-0.2,0.5-0.2,0.8c-0.3,1.1-0.6,2.1-0.8,3.2s-0.3,2.1-0.3,3.2c0,0.1,0,0.1,0,0.2
	C49.6,81.5,49.6,81.5,49.5,81.6C49.6,81.6,49.5,81.6,49.5,81.6z"/>
<path class="st1" d="M48.1,22.9c1.3,0,2.2,0.9,2.6,2.1c0.3,0.8,0.2,1.5,0,2.3c-0.3,1.4-1,2.6-2.3,3.2c-1.5,0.7-3.4,0.2-4.1-1.4
	c-0.7-1.6-0.6-3.2,0.3-4.6C45.3,23.5,46.4,22.9,48.1,22.9z"/>
<path class="st1" d="M64.5,53.5C64.5,53.4,64.5,53.4,64.5,53.5c0.7-1.4,1.3-2.8,2-4.1c1.1,0.9,1.3,1.7,0.9,2.7
	C67.1,53.1,66.3,53.7,64.5,53.5z"/>
<path class="st1" d="M52.5,68.4c0,0.7-0.5,1.3-1.3,1.3c-1,0-1.6-0.6-1.6-1.3c0-0.8,0.5-1.3,1.3-1.3C51.9,67,52.6,67.7,52.5,68.4z"/>
<path class="st3" d="M49.5,81.4c0,0.1,0,0.1,0,0.2v0.1v0.1v0.1c0,0.2,0.1,0.3,0.1,0.4s0,0.2,0.1,0.3c0,0.1,0,0.1,0,0.1v0.1h0.1
	c0-0.1,0-0.2-0.1-0.3c0-0.1,0-0.2-0.1-0.3c0-0.1,0-0.1,0-0.2s0-0.2,0-0.2s0-0.1,0-0.2s0-0.2,0-0.3c0-0.2,0-0.3,0-0.3
	S49.6,81.1,49.5,81.4C49.5,81.5,49.5,81.5,49.5,81.4z"/>
<path class="st3" d="M49.5,82.1"/>
</svg>
